<?xml version="1.0" encoding="UTF-8"?>
<!-- Generator: visioncortex VTracer 0.6.3 -->
<svg version="1.1" xmlns="http://www.w3.org/2000/svg" width="1280" height="718">
<path d="M0 0 C25.08 0 50.16 0 76 0 C76 0.33 76 0.66 76 1 C80.29 1.33 84.58 1.66 89 2 C89 2.66 89 3.32 89 4 C90.26 3.94 91.52 3.88 92.81 3.81 C96.77 3.82 96.77 3.82 98.56 5.25 C99.04 5.83 99.51 6.41 100 7 C101.01 7.52 102.02 8.03 103.06 8.56 C108.47 11.54 115.73 17.13 117.7 23.12 C117.8 23.74 117.9 24.36 118 25 C118.98 27.01 119.98 29.01 121 31 C122 34 122 34 122.44 36.56 C122.81 39.16 122.81 39.16 125 41 C125.96 43.88 126.12 45.68 126.1 48.67 C126.09 50.01 126.09 50.01 126.09 51.37 C126.08 52.77 126.08 52.77 126.06 54.19 C126.06 55.13 126.05 56.07 126.05 57.04 C126.04 59.36 126.02 61.68 126 64 C125.67 64 125.34 64 125 64 C124.94 64.76 124.88 65.52 124.82 66.3 C124.69 67.79 124.69 67.79 124.56 69.31 C124.44 70.79 124.44 70.79 124.32 72.3 C123.81 76.58 122.18 79.36 120 83 C118.97 85.1 117.96 87.21 116.96 89.33 C116 91 116 91 114 92 C113.86 92.62 113.71 93.24 113.56 93.88 C112.89 96.43 111.96 97.27 110 99 C108.14 100.78 106.66 102.47 105.12 104.56 C102.79 107.24 101.26 107.78 98 109 C95.73 111.02 95.73 111.02 94 113 C92.52 112.5 92.52 112.5 91 112 C87.82 113.87 87.82 113.87 85 116 C85.35 117.98 85.35 117.98 86 120 C86.66 120.33 87.32 120.66 88 121 C88 121.66 88 122.32 88 123 C88.62 123.25 89.23 123.5 89.87 123.75 C92.4 125.23 92.92 126.29 94.06 128.94 C95.36 131.93 96.7 133.71 99 136 C99.33 136.99 99.66 137.98 100 139 C100.5 139.5 100.99 139.99 101.5 140.5 C103 142 103 142 104 145 C104.66 145 105.32 145 106 145 C109 150.75 109 150.75 109 153 C109.99 153.33 110.98 153.66 112 154 C112 154.66 112 155.32 112 156 C112.66 156.66 113.32 157.32 114 158 C114.31 159.01 114.62 160.02 114.94 161.06 C115.29 162.03 115.64 163 116 164 C116.99 164.33 117.98 164.66 119 165 C119.12 165.6 119.25 166.2 119.38 166.81 C119.85 169.28 119.85 169.28 122.5 171 C125.32 173.25 125.21 173.72 126 177 C126.82 177.82 127.65 178.65 128.5 179.5 C131.43 182.43 132 183.99 132 188 C132.99 187.67 133.98 187.34 135 187 C135.66 188.98 136.32 190.96 137 193 C137.66 193 138.32 193 139 193 C139.4 194.18 139.4 194.18 139.81 195.38 C140.85 198.28 140.85 198.28 144 200 C144.69 203.63 144.69 203.63 145 207 C145.99 207.33 146.98 207.66 148 208 C150.25 209.75 150.25 209.75 152 212 C151.88 214.69 151.88 214.69 151 217 C147.97 218.51 144.89 218 141.59 217.88 C140.86 217.86 140.13 217.83 139.37 217.81 C137.04 217.73 134.71 217.65 132.38 217.56 C130.79 217.51 129.21 217.46 127.63 217.4 C123.75 217.28 119.88 217.14 116 217 C115.67 216.34 115.34 215.68 115 215 C114.44 214.48 113.89 213.97 113.31 213.44 C109.76 209.69 105.67 204.97 104.51 199.84 C104.1 197.6 104.1 197.6 101 196 C101 195.01 101 194.02 101 193 C100.34 193 99.68 193 99 193 C98.42 191.97 97.84 190.94 97.25 189.88 C95.31 186.48 93.19 183.25 91 180 C90.08 178.59 89.16 177.17 88.25 175.75 C87.82 175.08 87.39 174.42 86.95 173.73 C86 172 86 172 86 170 C85.34 170 84.68 170 84 170 C83.6 169.23 83.6 169.23 83.19 168.45 C79.54 161.68 75.31 155.36 71 149 C69.62 146.94 68.25 144.88 66.88 142.81 C66.22 141.83 65.57 140.85 64.89 139.84 C63.67 138 62.45 136.16 61.23 134.32 C60.7 133.51 60.17 132.71 59.62 131.88 C59.16 131.17 58.7 130.47 58.23 129.74 C56.98 127.87 56.98 127.87 55 126 C52.28 125.63 52.28 125.63 49.12 125.59 C47.37 125.53 47.37 125.53 45.58 125.47 C44.36 125.44 43.14 125.41 41.88 125.38 C40.64 125.34 39.41 125.3 38.14 125.26 C35.1 125.16 32.05 125.08 29 125 C29.49 125.99 29.49 125.99 30 127 C30.12 129.84 30.19 132.65 30.21 135.49 C30.22 136.37 30.23 137.24 30.24 138.15 C30.27 141.06 30.29 143.97 30.32 146.88 C30.34 148.9 30.36 150.91 30.38 152.93 C30.43 158.24 30.48 163.55 30.53 168.86 C30.58 174.27 30.64 179.69 30.69 185.11 C30.8 195.74 30.9 206.37 31 217 C26.83 217.62 22.82 218.13 18.61 218.13 C17.17 218.13 17.17 218.13 15.71 218.14 C14.73 218.13 13.76 218.13 12.75 218.12 C11.26 218.13 11.26 218.13 9.74 218.14 C8.79 218.14 7.84 218.13 6.86 218.13 C6 218.13 5.14 218.13 4.25 218.13 C2 218 2 218 -1 217 C-1.02 189 -1.04 161 -1.05 133.01 C-1.06 120.01 -1.06 107.01 -1.08 94.01 C-1.09 82.68 -1.09 71.36 -1.09 60.03 C-1.1 54.03 -1.1 48.03 -1.11 42.03 C-1.11 36.39 -1.11 30.74 -1.11 25.1 C-1.11 23.03 -1.12 20.95 -1.12 18.87 C-1.12 16.05 -1.12 13.23 -1.12 10.4 C-1.12 9.57 -1.13 8.74 -1.13 7.89 C-1.11 2.23 -1.11 2.23 0 0 Z M28 25 C28 28.3 28 31.6 28 35 C28.33 35 28.66 35 29 35 C29 31.7 29 28.4 29 25 C28.67 25 28.34 25 28 25 Z M30 25 C29.94 38.28 29.94 38.28 29.9 51.56 C29.89 56.98 29.88 62.39 29.85 67.81 C29.83 72.17 29.82 76.53 29.81 80.9 C29.81 82.56 29.8 84.23 29.79 85.9 C29.77 88.23 29.77 90.56 29.77 92.89 C29.77 93.58 29.76 94.28 29.75 94.99 C29.67 98.94 29.67 98.94 32 102 C34.23 102.28 34.23 102.28 36.79 102.2 C38.2 102.19 38.2 102.19 39.64 102.18 C40.63 102.16 41.61 102.14 42.62 102.12 C43.62 102.12 44.61 102.11 45.63 102.1 C48.09 102.07 50.54 102.04 53 102 C53 101.67 53 101.34 53 101 C55.64 100.67 58.28 100.34 61 100 C61 99.34 61 98.68 61 98 C63.97 98 66.94 98 70 98 C70 97.34 70 96.68 70 96 C70.93 95.78 70.93 95.78 71.88 95.56 C74.03 95.07 74.03 95.07 76 94 C76 93.01 76 92.02 76 91 C77.32 91.33 78.64 91.66 80 92 C81.46 89.35 82 88.11 82 85 C83.32 85 84.64 85 86 85 C87.26 82.09 88 80.2 88 77 C88.66 77 89.32 77 90 77 C92.44 70.65 93.62 64.78 94 58 C94.08 57.26 94.15 56.52 94.23 55.75 C94.68 49 92.09 43.9 89 38 C88.34 38 87.68 38 87 38 C86.92 37.4 86.84 36.8 86.75 36.19 C85.58 32.78 83.12 31.56 80 30 C78.67 29.33 77.33 28.67 76 28 C76 27.67 76 27.34 76 27 C74.02 27 72.04 27 70 27 C70 26.34 70 25.68 70 25 C56.8 25 43.6 25 30 25 Z M28 37 C29 41 29 41 29 41 Z M28 79 C28 81.64 28 84.28 28 87 C28.33 87 28.66 87 29 87 C29 84.36 29 81.72 29 79 C28.67 79 28.34 79 28 79 Z M83 86 C84 88 84 88 84 88 Z M28 89 C29 93 29 93 29 93 Z M28 94 C28 95.98 28 97.96 28 100 C28.33 100 28.66 100 29 100 C29 98.02 29 96.04 29 94 C28.67 94 28.34 94 28 94 Z M28 127 C29 131 29 131 29 131 Z M28 139 C29 143 29 143 29 143 Z M28 194 C29 198 29 198 29 198 Z M28 206 C28 209.3 28 212.6 28 216 C28.33 216 28.66 216 29 216 C29 212.7 29 209.4 29 206 C28.67 206 28.34 206 28 206 Z M18 215 C22 216 22 216 22 216 Z M143 215 C143 215.33 143 215.66 143 216 C144.98 216 146.96 216 149 216 C149 215.67 149 215.34 149 215 C147.02 215 145.04 215 143 215 Z " fill="#1F2E71" transform="translate(33,199)"/>
<path d="M0 0 C4.22 -0.02 8.44 -0.04 12.65 -0.05 C14.09 -0.06 15.52 -0.07 16.96 -0.08 C19.02 -0.09 21.08 -0.09 23.14 -0.1 C24.39 -0.1 25.63 -0.11 26.91 -0.11 C30 0 30 0 33 1 C34.13 1.12 35.27 1.25 36.44 1.38 C40.14 2.02 41.19 2.71 44 5 C45.09 5.39 46.19 5.78 47.31 6.19 C51.4 7.83 53.63 10.67 56.32 14.06 C57.94 16.08 57.94 16.08 60.13 17.55 C62.76 19.59 63.16 21.85 64 25 C64.33 25 64.66 25 65 25 C65.5 27.97 65.5 27.97 66 31 C66.33 31 66.66 31 67 31 C67.19 32.98 67.38 34.96 67.56 36.94 C67.72 38.59 67.72 38.59 67.88 40.28 C67.94 41.63 67.94 41.63 68 43 C67.67 43.33 67.34 43.66 67 44 C66.86 47.66 66.84 50.51 68 54 C68.09 56.08 68.13 58.17 68.13 60.25 C68.13 61.55 68.14 62.84 68.14 64.17 C68.14 65.59 68.14 67 68.13 68.42 C68.13 69.88 68.13 71.35 68.14 72.81 C68.14 75.88 68.14 78.95 68.13 82.03 C68.12 85.92 68.13 89.82 68.13 93.72 C68.14 96.74 68.14 99.77 68.13 102.8 C68.13 104.23 68.13 105.66 68.14 107.1 C68.15 116.77 67.76 126.35 67 136 C67.99 136.33 68.98 136.66 70 137 C69.67 137.99 69.34 138.98 69 140 C69.99 139.67 70.98 139.34 72 139 C72 139.66 72 140.32 72 141 C75.16 143.11 76.51 143.34 80.19 143.62 C81.09 143.7 81.99 143.77 82.92 143.85 C83.95 143.93 83.95 143.93 85 144 C85.33 145.65 85.66 147.3 86 149 C86.66 149 87.32 149 88 149 C88.08 151.1 88.14 153.21 88.19 155.31 C88.22 156.48 88.26 157.66 88.29 158.86 C88 162 88 162 86.75 163.88 C83.67 165.85 80.6 165.7 77 166 C77 166.33 77 166.66 77 167 C75.08 167.22 73.17 167.43 71.25 167.62 C70.18 167.74 69.12 167.86 68.02 167.98 C64.92 168 63.58 167.61 61 166 C60.34 165.67 59.68 165.34 59 165 C58.34 164.67 57.68 164.34 57 164 C56.36 163.73 55.72 163.46 55.06 163.19 C50.4 160.5 47.62 156.59 45 152 C44.67 152 44.34 152 44 152 C43.5 148.53 43.5 148.53 43 145 C41.68 145.33 40.36 145.66 39 146 C39.33 146.99 39.66 147.98 40 149 C38.35 149.66 36.7 150.32 35 151 C35 151.66 35 152.32 35 153 C33.35 153 31.7 153 30 153 C29.91 153.63 29.82 154.26 29.73 154.91 C29 157 29 157 27.33 157.91 C26.64 158.1 25.96 158.3 25.25 158.5 C21.48 159.73 19.03 161.41 16 164 C9.32 166.23 2.98 166.18 -4 166.19 C-5.08 166.2 -6.16 166.21 -7.27 166.22 C-8.32 166.23 -9.36 166.23 -10.44 166.23 C-11.38 166.23 -12.33 166.24 -13.31 166.24 C-16.26 165.98 -18.38 165.39 -21 164 C-21.33 163.01 -21.66 162.02 -22 161 C-23.64 160.85 -23.64 160.85 -25.31 160.69 C-29.06 159.99 -29.7 159.74 -32 157 C-32.92 156.57 -32.92 156.57 -33.86 156.12 C-40.77 152.49 -44.39 145.01 -47 138 C-47.33 138 -47.66 138 -48 138 C-48 127.44 -48 116.88 -48 106 C-46.02 105.01 -46.02 105.01 -44 104 C-43.18 100.94 -43.18 100.94 -43 98 C-42.34 98 -41.68 98 -41 98 C-41.33 96.68 -41.66 95.36 -42 94 C-41.36 93.71 -40.72 93.42 -40.06 93.12 C-37.85 92.17 -37.85 92.17 -37 90 C-35.48 88.76 -35.48 88.76 -33.94 87.5 C-32.97 86.68 -32 85.85 -31 85 C-31 84.34 -31 83.68 -31 83 C-29.68 83 -28.36 83 -27 83 C-27 82.34 -27 81.68 -27 81 C-25.68 81 -24.36 81 -23 81 C-22.75 80.38 -22.5 79.76 -22.25 79.12 C-20.74 76.56 -19.79 75.96 -17 75 C-14.25 74.88 -14.25 74.88 -12 75 C-12 74.34 -12 73.68 -12 73 C-10.68 73 -9.36 73 -8 73 C-8 72.34 -8 71.68 -8 71 C-4.7 71 -1.4 71 2 71 C2 70.34 2 69.68 2 69 C2.84 68.96 2.84 68.96 3.7 68.92 C6.24 68.81 8.77 68.69 11.31 68.56 C12.19 68.52 13.07 68.48 13.98 68.44 C14.83 68.4 15.68 68.36 16.55 68.32 C17.33 68.28 18.11 68.24 18.92 68.21 C21.19 68.06 21.19 68.06 24 67 C26.39 66.93 28.79 66.92 31.19 66.94 C32.46 66.95 33.73 66.96 35.04 66.96 C36.02 66.98 36.99 66.99 38 67 C37.88 62.94 37.76 58.89 37.63 54.83 C37.58 53.45 37.54 52.07 37.5 50.69 C37.44 48.71 37.38 46.72 37.32 44.73 C37.28 43.54 37.24 42.35 37.21 41.12 C36.98 36.26 36.98 36.26 34.41 32.4 C33.78 31.92 33.15 31.44 32.5 30.94 C29.83 28.88 29.1 28.31 28 25 C25.36 25 22.72 25 20 25 C20 24.67 20 24.34 20 24 C18.06 23.78 16.13 23.57 14.19 23.38 C12.57 23.2 12.57 23.2 10.92 23.02 C7.8 22.73 7.8 22.73 5 25 C1.27 25.73 -2.22 26.02 -6 25.88 C-10.32 25.81 -13.18 27.01 -17 29 C-17.66 29.66 -18.32 30.32 -19 31 C-22.12 30.62 -22.12 30.62 -25 30 C-24.67 30.99 -24.34 31.98 -24 33 C-25.32 32.67 -26.64 32.34 -28 32 C-28.33 32.99 -28.66 33.98 -29 35 C-30.49 34.5 -30.49 34.5 -32 34 C-31.67 34.99 -31.34 35.98 -31 37 C-31.66 37 -32.32 37 -33 37 C-35.18 33.72 -35.25 32.76 -35.23 28.96 C-35.23 27.99 -35.23 27.02 -35.22 26.01 C-35.21 25 -35.2 23.98 -35.19 22.94 C-35.19 21.92 -35.19 20.9 -35.19 19.85 C-35.14 12.28 -35.14 12.28 -34 10 C-33.09 9.86 -32.18 9.71 -31.25 9.56 C-27.78 8.96 -25.95 7.84 -23 6 C-19.18 4.49 -16.11 3.76 -12 4 C-12 3.34 -12 2.68 -12 2 C-8.04 2 -4.08 2 0 2 C0 1.34 0 0.68 0 0 Z M1 1 C1 1.33 1 1.66 1 2 C2.65 2 4.3 2 6 2 C6 1.67 6 1.34 6 1 C4.35 1 2.7 1 1 1 Z M-11 3 C-7 4 -7 4 -7 4 Z M39 49 C39 55.27 39 61.54 39 68 C39.33 68 39.66 68 40 68 C40 61.73 40 55.46 40 49 C39.67 49 39.34 49 39 49 Z M66 54 C66 75.78 66 97.56 66 120 C66.33 120 66.66 120 67 120 C67 98.22 67 76.44 67 54 C66.67 54 66.34 54 66 54 Z M3 70 C7 71 7 71 7 71 Z M-7 72 C-3 73 -3 73 -3 73 Z M33 84 C33 84.33 33 84.66 33 85 C34.65 85 36.3 85 38 85 C38 84.67 38 84.34 38 84 C36.35 84 34.7 84 33 84 Z M12 87 C10.01 87.38 8.01 87.73 6 88 C6 88.33 6 88.66 6 89 C4.89 89.31 3.77 89.62 2.62 89.94 C-0.79 90.82 -0.79 90.82 -3 92 C-3 92.99 -3 93.98 -3 95 C-3.66 95 -4.32 95 -5 95 C-5 95.66 -5 96.32 -5 97 C-7.31 97.66 -9.62 98.32 -12 99 C-12.33 100.32 -12.66 101.64 -13 103 C-13.99 103 -14.98 103 -16 103 C-16 103.66 -16 104.32 -16 105 C-16.66 105 -17.32 105 -18 105 C-18.84 108.98 -19.44 112.97 -20 117 C-20.33 119.33 -20.67 121.67 -21 124 C-20.34 124.33 -19.68 124.66 -19 125 C-18.31 126.99 -17.64 128.99 -17 131 C-14.84 134.23 -13.31 135.11 -10 137 C-9.39 137.52 -8.78 138.04 -8.15 138.57 C-5.56 140.29 -4.13 140.36 -1.05 140.33 C-0.12 140.32 0.81 140.32 1.77 140.31 C2.73 140.29 3.69 140.27 4.69 140.25 C5.66 140.24 6.64 140.24 7.64 140.23 C12.16 140.59 12.16 140.59 16 139 C18.33 138.63 20.66 138.3 23 138 C23 137.34 23 136.68 23 136 C23.74 135.94 24.49 135.88 25.25 135.81 C28.84 134.75 29.73 132.9 32 130 C34.69 128.75 34.69 128.75 37 128 C39.13 125.87 38.26 121.11 38.32 118.15 C38.34 117.27 38.36 116.38 38.38 115.47 C38.44 112.62 38.5 109.78 38.56 106.94 C38.61 105.01 38.65 103.09 38.69 101.17 C38.8 96.45 38.9 91.72 39 87 C36.61 85.8 35.23 85.93 32.56 86 C27.78 86.07 23.18 85.64 18.45 85.02 C15.67 85 14.38 85.66 12 87 Z M39 89 C39 101.21 39 113.42 39 126 C39.33 126 39.66 126 40 126 C40 113.79 40 101.58 40 89 C39.67 89 39.34 89 39 89 Z M-46 105 C-45 107 -45 107 -45 107 Z M-47 107 C-46 110 -46 110 -46 110 Z M-22 117 C-22 118.65 -22 120.3 -22 122 C-21.67 122 -21.34 122 -21 122 C-21 120.35 -21 118.7 -21 117 C-21.33 117 -21.66 117 -22 117 Z M-1 141 C-1 141.33 -1 141.66 -1 142 C2.96 142 6.92 142 11 142 C11 141.67 11 141.34 11 141 C7.04 141 3.08 141 -1 141 Z M79 145 C79 145.33 79 145.66 79 146 C80.65 146 82.3 146 84 146 C84 145.67 84 145.34 84 145 C82.35 145 80.7 145 79 145 Z " fill="#1C2B6D" transform="translate(684,253)"/>
<path d="M0 0 C3.93 -0.02 7.87 -0.04 11.8 -0.05 C13.79 -0.06 15.79 -0.08 17.78 -0.09 C19.04 -0.09 20.29 -0.09 21.58 -0.1 C22.74 -0.1 23.9 -0.11 25.09 -0.11 C28 0 28 0 31 1 C32.66 1.35 34.33 1.68 36 2 C36 2.66 36 3.32 36 4 C37.18 4.22 37.18 4.22 38.38 4.44 C41 5 41 5 43 6 C43 6.66 43 7.32 43 8 C43.78 8.12 44.57 8.25 45.38 8.38 C48.87 9.21 49.99 10.99 52.5 13.56 C54.75 16 54.75 16 57 17 C57 17.66 57 18.32 57 19 C57.66 19 58.32 19 59 19 C59.41 19.91 59.83 20.81 60.25 21.75 C61.79 24.99 61.79 24.99 64.06 27 C66.47 29.48 67.09 31.7 68 35 C68.33 35.99 68.66 36.98 69 38 C70.13 42.47 71.04 46.92 71.56 51.5 C71.61 54.82 71.61 54.82 73 56 C75.25 66.64 75.22 77.18 75 88 C71.01 89.33 67.19 89.13 63.03 89.11 C61.65 89.11 61.65 89.11 60.25 89.11 C57.22 89.11 54.18 89.11 51.14 89.1 C49.04 89.1 46.94 89.09 44.83 89.09 C39.3 89.09 33.76 89.08 28.22 89.07 C22.57 89.06 16.92 89.05 11.27 89.05 C0.18 89.04 -10.91 89.02 -22 89 C-21.86 90.26 -21.71 91.52 -21.56 92.81 C-21.48 93.52 -21.4 94.23 -21.32 94.96 C-21.03 97.19 -21.03 97.19 -20 100 C-20 100.99 -20 101.98 -20 103 C-19.4 104.83 -18.75 106.64 -18.06 108.44 C-16.08 113.66 -16.08 113.66 -15.48 116.2 C-14.73 119 -12.84 120.79 -11 123 C-10.36 124.01 -9.72 125.02 -9.06 126.06 C-6.31 129.98 -3.31 132.25 0.81 134.62 C1.53 135.08 2.26 135.53 3 136 C3 136.66 3 137.32 3 138 C4.65 138 6.3 138 8 138 C8 138.33 8 138.66 8 139 C10.31 139.33 12.62 139.66 15 140 C15 140.33 15 140.66 15 141 C19.11 141.02 23.22 141.04 27.34 141.05 C28.73 141.06 30.13 141.07 31.53 141.08 C33.54 141.09 35.55 141.09 37.56 141.1 C38.77 141.1 39.98 141.11 41.22 141.11 C43.91 141.32 43.91 141.32 45 140 C46.85 139.93 48.71 139.92 50.56 139.94 C51.57 139.95 52.59 139.96 53.63 139.96 C54.8 139.98 54.8 139.98 56 140 C56 139.34 56 138.68 56 138 C57.83 137.78 57.83 137.78 59.69 137.56 C62.83 137.17 65.91 136.68 69 136 C69 135.34 69 134.68 69 134 C70.94 134.81 70.94 134.81 73 136 C73.98 138.93 74.06 140.44 73.88 143.45 C73.81 144.72 73.81 144.72 73.73 146.02 C73.68 146.9 73.62 147.78 73.56 148.69 C73.51 149.58 73.46 150.47 73.4 151.39 C73.27 153.6 73.14 155.8 73 158 C71.68 157.67 70.36 157.34 69 157 C69 157.66 69 158.32 69 159 C66.03 159.99 63.06 160.98 60 162 C60 162.33 60 162.66 60 163 C56.94 163.54 54.11 164 51 164 C51 164.33 51 164.66 51 165 C46.71 165.33 42.42 165.66 38 166 C38 166.33 38 166.66 38 167 C30.41 167 22.82 167 15 167 C15 166.67 15 166.34 15 166 C13.75 165.93 13.75 165.93 12.48 165.85 C11.39 165.78 10.31 165.7 9.19 165.62 C8.11 165.56 7.03 165.49 5.92 165.41 C3 165 3 165 0 163 C-1.98 162.37 -1.98 162.37 -4.06 161.94 C-6.25 161.44 -7.99 161.01 -10 160 C-10 159.01 -10 158.02 -10 157 C-11.32 157.33 -12.64 157.66 -14 158 C-14.33 157.01 -14.66 156.02 -15 155 C-16.65 154.67 -18.3 154.34 -20 154 C-20.33 153.01 -20.66 152.02 -21 151 C-21.75 150.72 -22.5 150.44 -23.27 150.15 C-26.82 148.65 -28.35 146.62 -30.75 143.62 C-31.53 142.67 -32.31 141.71 -33.11 140.73 C-34.83 138.24 -35.3 136.82 -36 134 C-36.99 133.67 -37.98 133.34 -39 133 C-40.39 130.79 -40.39 130.79 -41.69 128.06 C-42.12 127.17 -42.56 126.27 -43.01 125.35 C-44 123 -44 123 -44 121 C-44.66 121 -45.32 121 -46 121 C-46 119.02 -46 117.04 -46 115 C-46.66 115 -47.32 115 -48 115 C-49.48 108.07 -49.48 108.07 -51 101 C-51.33 101 -51.66 101 -52 101 C-52.98 89.98 -53.17 79.23 -52.62 68.19 C-52.59 67.47 -52.56 66.75 -52.53 66.01 C-52.29 61.7 -51.56 58.03 -50 54 C-49.34 54 -48.68 54 -48 54 C-48.06 52.7 -48.06 52.7 -48.12 51.38 C-48 47.88 -47.24 45.25 -46 42 C-45.34 42 -44.68 42 -44 42 C-44 41.01 -44 40.02 -44 39 C-43.34 39 -42.68 39 -42 39 C-41.9 38.07 -41.79 37.14 -41.69 36.19 C-40.95 32.77 -40.39 32.29 -38 30 C-37.88 29.22 -37.75 28.43 -37.62 27.62 C-36.32 22.13 -30.6 18.76 -26.36 15.33 C-25.68 14.67 -25.68 14.67 -25 14 C-25 13.34 -25 12.68 -25 12 C-23.02 11.34 -21.04 10.68 -19 10 C-19 9.34 -19 8.68 -19 8 C-17.73 7.52 -16.46 7.04 -15.19 6.56 C-14.48 6.3 -13.77 6.03 -13.04 5.75 C-11.37 5.14 -9.69 4.56 -8 4 C-8 3.34 -8 2.68 -8 2 C-5.36 2 -2.72 2 0 2 C0 1.34 0 0.68 0 0 Z M1 1 C5 2 5 2 5 2 Z M9.73 22.16 C6.34 22.43 6.34 22.43 3 23 C2.67 23.66 2.34 24.32 2 25 C-0.33 25.78 -2.61 26.42 -5 27 C-5 27.66 -5 28.32 -5 29 C-5.66 29 -6.32 29 -7 29 C-7 29.99 -7 30.98 -7 32 C-7.76 32.06 -8.53 32.12 -9.31 32.19 C-12.15 32.74 -12.15 32.74 -13.5 35.17 C-15.06 38.11 -16.41 41.06 -17.69 44.12 C-18.12 45.16 -18.56 46.19 -19.01 47.26 C-20.17 49.98 -20.17 49.98 -20 53 C-20.33 53 -20.66 53 -21 53 C-20.86 54.81 -20.71 56.63 -20.56 58.44 C-20.48 59.45 -20.4 60.46 -20.32 61.5 C-20.27 63.94 -20.27 63.94 -19 65 C-16.98 65.09 -14.95 65.12 -12.92 65.11 C-11.62 65.11 -10.32 65.11 -8.98 65.11 C-7.55 65.11 -6.11 65.1 -4.68 65.1 C-3.23 65.1 -1.77 65.09 -0.32 65.09 C3.52 65.09 7.36 65.08 11.2 65.07 C15.11 65.06 19.03 65.05 22.94 65.05 C30.63 65.04 38.31 65.02 46 65 C46 61.7 46 58.4 46 55 C45.67 55 45.34 55 45 55 C44.94 53.76 44.88 52.52 44.81 51.25 C44.13 45.17 42.22 39.21 39 34 C36.45 32.61 36.45 32.61 34 32 C34 31.34 34 30.68 34 30 C33.34 30 32.68 30 32 30 C31.51 28.51 31.51 28.51 31 27 C24.07 23.53 17.49 21.61 9.73 22.16 Z M-10 30 C-9.67 30.66 -9.34 31.32 -9 32 C-8.67 31.34 -8.34 30.68 -8 30 C-8.66 30 -9.32 30 -10 30 Z M-49 55 C-48 57 -48 57 -48 57 Z M-22 59 C-22 60.65 -22 62.3 -22 64 C-21.67 64 -21.34 64 -21 64 C-21 62.35 -21 60.7 -21 59 C-21.33 59 -21.66 59 -22 59 Z M-51 60 C-51 61.65 -51 63.3 -51 65 C-50.67 65 -50.34 65 -50 65 C-50 63.35 -50 61.7 -50 60 C-50.33 60 -50.66 60 -51 60 Z M72 67 C73 69 73 69 73 69 Z M73 70 C74 74 74 74 74 74 Z M73 76 C73 79.63 73 83.26 73 87 C73.33 87 73.66 87 74 87 C74 83.37 74 79.74 74 76 C73.67 76 73.34 76 73 76 Z M-10 86 C-10 86.33 -10 86.66 -10 87 C-7.36 87 -4.72 87 -2 87 C-2 86.67 -2 86.34 -2 86 C-4.64 86 -7.28 86 -10 86 Z M64 86 C64 86.33 64 86.66 64 87 C65.98 87 67.96 87 70 87 C70 86.67 70 86.34 70 86 C68.02 86 66.04 86 64 86 Z M-24 95 C-23 98 -23 98 -23 98 Z M46 141 C46 141.33 46 141.66 46 142 C47.65 142 49.3 142 51 142 C51 141.67 51 141.34 51 141 C49.35 141 47.7 141 46 141 Z M23 143 C23 143.33 23 143.66 23 144 C28.28 144 33.56 144 39 144 C39 143.67 39 143.34 39 143 C33.72 143 28.44 143 23 143 Z " fill="#1E2D6F" transform="translate(1174,253)"/>
<path d="M0 0 C9.57 0 19.14 0 29 0 C29 0.33 29 0.66 29 1 C31.97 1.5 31.97 1.5 35 2 C35 2.66 35 3.32 35 4 C35.73 4.12 36.46 4.23 37.21 4.35 C40.04 5.01 42.06 5.94 44.56 7.38 C45.68 8.01 45.68 8.01 46.82 8.65 C52.78 12.34 52.78 12.34 54 16 C55.49 16.5 55.49 16.5 57 17 C58.19 19.56 58.19 19.56 59 22 C59.66 22 60.32 22 61 22 C61.29 22.78 61.58 23.57 61.88 24.38 C62.85 27.1 62.85 27.1 65 29 C64.34 29 63.68 29 63 29 C63 29.99 63 30.98 63 32 C64.49 32.5 64.49 32.5 66 33 C67.65 35.6 68 36.86 68 40 C68.66 40.33 69.32 40.66 70 41 C70.63 43.94 70.63 43.94 71.12 47.56 C71.29 48.76 71.46 49.96 71.63 51.19 C71.75 52.12 71.88 53.05 72 54 C72.33 54 72.66 54 73 54 C74.06 61.78 73.96 69.3 73.56 77.12 C73.51 78.27 73.46 79.42 73.4 80.6 C73.28 83.4 73.14 86.2 73 89 C41.67 89 10.33 89 -21 89 C-21.99 89.5 -21.99 89.5 -23 90 C-22.67 90.99 -22.34 91.98 -22 93 C-21.67 94.33 -21.33 95.67 -21 97 C-20.67 97.99 -20.34 98.98 -20 100 C-20.12 102.26 -20.12 102.26 -20.44 104.69 C-20.54 105.5 -20.64 106.3 -20.75 107.14 C-20.83 107.75 -20.91 108.37 -21 109 C-20.01 109.33 -19.02 109.66 -18 110 C-17.67 110.99 -17.34 111.98 -17 113 C-11.84 124.08 -11.84 124.08 -3 132 C-3 132.66 -3 133.32 -3 134 C-1.92 134.4 -1.92 134.4 -0.81 134.81 C2 136 2 136 4.44 137.56 C7.32 139.18 9.74 139.62 13 140 C13 140.66 13 141.32 13 142 C23.56 142 34.12 142 45 142 C45 141.34 45 140.68 45 140 C47.97 140 50.94 140 54 140 C54.33 139.34 54.66 138.68 55 138 C55 138.66 55 139.32 55 140 C55.99 139.34 56.98 138.68 58 138 C60 137 60 137 63.06 136.56 C64.03 136.38 65 136.19 66 136 C66.33 135.34 66.66 134.68 67 134 C67.62 134.19 68.24 134.37 68.88 134.56 C71.04 135.24 71.04 135.24 73 134 C74 137.01 74.06 138.73 73.91 141.85 C73.87 142.78 73.83 143.72 73.78 144.68 C73.7 146.14 73.7 146.14 73.62 147.62 C73.58 148.6 73.54 149.58 73.49 150.59 C73.13 157.87 73.13 157.87 72 159 C69.94 159.32 67.88 159.51 65.81 159.72 C63.98 159.82 63.98 159.82 63 161 C61.59 161.21 60.17 161.37 58.75 161.5 C55.45 161.83 52.24 162.27 49 163 C49.66 163.66 50.32 164.32 51 165 C46.05 165.33 41.1 165.66 36 166 C36 166.33 36 166.66 36 167 C28.74 167 21.48 167 14 167 C14 166.67 14 166.34 14 166 C13.24 165.94 12.48 165.88 11.7 165.82 C10.71 165.73 9.71 165.65 8.69 165.56 C7.21 165.44 7.21 165.44 5.7 165.32 C1.12 164.78 -2.79 162.8 -7 161 C-7.99 160.67 -8.98 160.34 -10 160 C-10 159.01 -10 158.02 -10 157 C-12.49 156.31 -14.38 156 -17 156 C-17 155.34 -17 154.68 -17 154 C-17.9 153.75 -18.79 153.51 -19.72 153.25 C-27.82 150.16 -33.97 141.47 -38 134 C-38 133.34 -38 132.68 -38 132 C-38.66 132 -39.32 132 -40 132 C-42.31 127.71 -44.62 123.42 -47 119 C-47.33 119 -47.66 119 -48 119 C-48 116.36 -48 113.72 -48 111 C-48.66 111 -49.32 111 -50 111 C-52.07 102.13 -52.43 93.38 -52.63 84.33 C-52.69 81.91 -52.76 79.5 -52.83 77.08 C-52.87 75.54 -52.91 74 -52.95 72.46 C-52.97 71.74 -52.99 71.02 -53.01 70.28 C-53.12 65.23 -53.12 65.23 -52 63 C-51.34 63 -50.68 63 -50 63 C-50.33 59.7 -50.66 56.4 -51 53 C-49.51 52.5 -49.51 52.5 -48 52 C-48.04 50.95 -48.08 49.9 -48.12 48.81 C-48.01 45.26 -47.53 43.15 -46 40 C-45.34 40 -44.68 40 -44 40 C-43.34 37.03 -42.68 34.06 -42 31 C-40.68 31 -39.36 31 -38 31 C-37.9 30.28 -37.79 29.56 -37.69 28.81 C-36.92 25.68 -35.9 23.61 -34 21 C-32.67 20.33 -31.33 19.67 -30 19 C-27.48 16.17 -25.21 13.28 -22.94 10.25 C-20.96 7.95 -19.86 6.93 -17 6 C-13.75 5.88 -13.75 5.88 -11 6 C-11 5.34 -11 4.68 -11 4 C-7.37 1.67 -4.23 1.84 0 2 C0 1.34 0 0.68 0 0 Z M-35 23 C-34 25 -34 25 -34 25 Z M-5 27 C-5.33 27.66 -5.66 28.32 -6 29 C-6.99 29.33 -7.98 29.66 -9 30 C-9 30.66 -9 31.32 -9 32 C-9.99 32.33 -10.98 32.66 -12 33 C-11.67 33.66 -11.34 34.32 -11 35 C-11.62 35.21 -12.24 35.41 -12.88 35.62 C-15.85 37.55 -16.08 39.67 -17 43 C-17.33 43.33 -17.66 43.66 -18 44 C-18.22 44.99 -18.22 44.99 -18.44 46 C-18.62 46.66 -18.81 47.32 -19 48 C-19.66 48.33 -20.32 48.66 -21 49 C-21.55 51.68 -21.55 51.68 -21.75 54.81 C-21.85 55.87 -21.95 56.93 -22.05 58.02 C-22.21 61.3 -22.21 61.3 -20 65 C1.12 65 22.24 65 44 65 C45.08 57.66 45.08 57.66 44.12 51.12 C43.85 50.05 43.85 50.05 43.57 48.95 C41.4 41.53 38.78 35.3 33 30 C32.34 30 31.68 30 31 30 C30.5 28.02 30.5 28.02 30 26 C29.36 25.88 28.72 25.75 28.06 25.62 C27.04 25.32 27.04 25.32 26 25 C25.5 24.01 25.5 24.01 25 23 C21.31 22.88 17.63 22.81 13.94 22.75 C12.9 22.72 11.86 22.68 10.79 22.65 C4.28 22.57 0.27 23.06 -5 27 Z M-41 32 C-40 35 -40 35 -40 35 Z M-47 45 C-46 48 -46 48 -46 48 Z M-50 54 C-49 56 -49 56 -49 56 Z M-23 61 C-22 63 -22 63 -22 63 Z M3 86 C3 86.33 3 86.66 3 87 C4.65 87 6.3 87 8 87 C8 86.67 8 86.34 8 86 C6.35 86 4.7 86 3 86 Z M25 86 C25 86.33 25 86.66 25 87 C32.26 87 39.52 87 47 87 C47 86.67 47 86.34 47 86 C39.74 86 32.48 86 25 86 Z M-17 118 C-16.01 119.49 -16.01 119.49 -15 121 C-15 120.01 -15 119.02 -15 118 C-15.66 118 -16.32 118 -17 118 Z M71 140 C71 141.65 71 143.3 71 145 C71.33 145 71.66 145 72 145 C72 143.35 72 141.7 72 140 C71.67 140 71.34 140 71 140 Z M46 141 C50 142 50 142 50 142 Z M24 143 C24 143.33 24 143.66 24 144 C28.62 144 33.24 144 38 144 C38 143.67 38 143.34 38 143 C33.38 143 28.76 143 24 143 Z M71 148 C71 150.97 71 153.94 71 157 C70.01 157.33 69.02 157.66 68 158 C69.32 158 70.64 158 72 158 C72 154.7 72 151.4 72 148 C71.67 148 71.34 148 71 148 Z " fill="#1C2B6E" transform="translate(255,253)"/>
<path d="M0 0 C6.93 0 13.86 0 21 0 C21 0.66 21 1.32 21 2 C21.99 1.92 22.98 1.84 24 1.75 C28.63 1.71 32.08 3.72 36 6 C36 6.66 36 7.32 36 8 C36.72 8.21 37.44 8.41 38.19 8.62 C41.77 10.38 43.63 12.92 46 16 C46.91 17.04 47.83 18.09 48.75 19.12 C50.89 21.86 51.3 22.8 52 26 C52.74 28.07 53.5 30.14 54.28 32.2 C56.3 40.06 56.13 48.26 56.02 56.32 C56.01 57.41 56 58.49 55.99 59.61 C55.96 63.16 55.92 66.71 55.88 70.26 C55.85 72.73 55.83 75.21 55.81 77.68 C55.74 84.17 55.68 90.66 55.61 97.14 C55.53 103.77 55.47 110.4 55.4 117.03 C55.28 130.02 55.14 143.01 55 156 C55.66 156 56.32 156 57 156 C57 157.32 57 158.64 57 160 C56.34 160 55.68 160 55 160 C54.67 161.32 54.34 162.64 54 164 C45.42 164 36.84 164 28 164 C27.07 161.21 26.86 159.48 26.84 156.6 C26.82 155.7 26.81 154.8 26.8 153.87 C26.79 152.88 26.79 151.9 26.78 150.88 C26.76 149.33 26.76 149.33 26.74 147.74 C26.71 144.29 26.68 140.85 26.65 137.41 C26.63 135.02 26.6 132.63 26.58 130.24 C26.53 125.24 26.48 120.23 26.44 115.22 C26.39 108.8 26.32 102.37 26.26 95.94 C26.21 91.01 26.16 86.08 26.12 81.15 C26.1 78.78 26.07 76.41 26.05 74.04 C26.02 70.73 25.99 67.42 25.96 64.12 C25.95 63.13 25.94 62.15 25.93 61.13 C25.92 59.78 25.92 59.78 25.91 58.4 C25.9 57.23 25.9 57.23 25.89 56.03 C26 54 26 54 27 51 C26.34 50.67 25.68 50.34 25 50 C25.33 48.68 25.66 47.36 26 46 C25.67 46 25.34 46 25 46 C25 43.36 25 40.72 25 38 C24.34 38 23.68 38 23 38 C23 36.68 23 35.36 23 34 C22.34 34 21.68 34 21 34 C20.55 33.38 20.09 32.76 19.62 32.12 C17.45 29.29 15.41 28.19 11.87 27.71 C9.41 27.66 6.96 27.63 4.5 27.62 C3.22 27.59 3.22 27.59 1.91 27.55 C-3.12 27.45 -3.12 27.45 -7.35 29.89 C-8.17 30.93 -8.17 30.93 -9 32 C-10.96 33.2 -10.96 33.2 -12.94 34.12 C-13.59 34.44 -14.23 34.75 -14.9 35.07 C-17 36 -17 36 -19.42 36.81 C-22.72 38.33 -24.76 40.37 -27.31 42.94 C-28.2 43.81 -29.08 44.69 -29.99 45.59 C-32.32 47.86 -32.32 47.86 -32 51 C-32.99 51 -33.98 51 -35 51 C-35.43 52.11 -35.43 52.11 -35.88 53.25 C-37 56 -37 56 -38.06 57.9 C-39.1 60.23 -39.24 61.76 -39.23 64.3 C-39.24 65.15 -39.24 66.01 -39.24 66.89 C-39.22 68.28 -39.22 68.28 -39.21 69.69 C-39.21 70.68 -39.21 71.66 -39.21 72.67 C-39.2 75.92 -39.18 79.17 -39.16 82.41 C-39.15 84.67 -39.15 86.92 -39.14 89.18 C-39.13 95.11 -39.11 101.04 -39.08 106.98 C-39.04 116.48 -39.01 125.99 -38.98 135.5 C-38.97 138.82 -38.96 142.15 -38.94 145.48 C-38.93 147.51 -38.92 149.54 -38.92 151.56 C-38.91 152.5 -38.9 153.43 -38.9 154.39 C-38.9 155.23 -38.89 156.08 -38.89 156.95 C-38.89 157.69 -38.89 158.43 -38.88 159.19 C-39 161 -39 161 -40 163 C-49.24 163.33 -58.48 163.66 -68 164 C-69.41 161.18 -69.12 158.84 -69.12 155.69 C-69.12 155.03 -69.12 154.38 -69.12 153.7 C-69.12 151.5 -69.12 149.29 -69.11 147.09 C-69.11 145.51 -69.11 143.93 -69.11 142.36 C-69.11 138.07 -69.11 133.78 -69.1 129.49 C-69.1 125.01 -69.09 120.53 -69.09 116.05 C-69.09 107.57 -69.08 99.08 -69.07 90.59 C-69.06 80.94 -69.06 71.28 -69.05 61.62 C-69.04 41.75 -69.02 21.87 -69 2 C-68.39 2.16 -67.78 2.32 -67.15 2.49 C-64.69 3.07 -62.43 3.18 -59.9 3.25 C-58.45 3.3 -58.45 3.3 -56.97 3.35 C-54.95 3.41 -52.92 3.46 -50.89 3.52 C-49.92 3.55 -48.96 3.59 -47.96 3.62 C-47.08 3.65 -46.2 3.67 -45.3 3.7 C-43 4 -43 4 -40 6 C-39.75 7.88 -39.75 7.88 -39.93 10.13 C-39.98 10.94 -40.04 11.74 -40.09 12.57 C-40.16 13.42 -40.24 14.26 -40.31 15.12 C-40.4 16.4 -40.4 16.4 -40.5 17.7 C-40.65 19.8 -40.82 21.9 -41 24 C-40.34 24 -39.68 24 -39 24 C-39 24.66 -39 25.32 -39 26 C-34.22 23.41 -30.72 20.24 -27.4 15.92 C-21.82 8.94 -15.41 4.95 -7 2 C-3.07 1.82 -3.07 1.82 0 2 C0 1.34 0 0.68 0 0 Z M2 25 C2 25.33 2 25.66 2 26 C4.97 26 7.94 26 11 26 C11 25.67 11 25.34 11 25 C8.03 25 5.06 25 2 25 Z M53 43 C54 45 54 45 54 45 Z M-43 159 C-42 161 -42 161 -42 161 Z M36 161 C40 162 40 162 40 162 Z " fill="#1B2B6F" transform="translate(878,253)"/>
<path d="M0 0 C12.54 0 25.08 0 38 0 C38 0.33 38 0.66 38 1 C38.85 1.04 39.69 1.07 40.56 1.11 C47.31 1.5 52.83 2.22 59 5 C59 5.66 59 6.32 59 7 C59.99 7.5 59.99 7.5 61 8 C61 15.26 61 22.52 61 30 C58.03 30 55.06 30 52 30 C52 29.67 52 29.34 52 29 C54.64 29 57.28 29 60 29 C58.81 27.58 58.81 27.58 55.4 27.9 C53.91 27.91 52.43 27.92 50.94 27.94 C50.18 27.94 49.42 27.95 48.64 27.95 C46.76 27.96 44.88 27.98 43 28 C42.51 27.01 42.51 27.01 42 26 C40.93 26.02 40.93 26.02 39.84 26.04 C34.44 26.09 29.32 25.95 24 25 C24 24.67 24 24.34 24 24 C22.02 24 20.04 24 18 24 C18 24.33 18 24.66 18 25 C13.05 25 8.1 25 3 25 C3 25.66 3 26.32 3 27 C2.34 27 1.68 27 1 27 C1 27.66 1 28.32 1 29 C0.01 29 -0.98 29 -2 29 C-2.66 29.99 -3.32 30.98 -4 32 C-5.14 33.05 -6.31 34.07 -7.5 35.06 C-11.62 38.37 -11.62 38.37 -14 43 C-14.66 43 -15.32 43 -16 43 C-16.33 43.99 -16.66 44.98 -17 46 C-17.33 46.62 -17.66 47.24 -18 47.88 C-19.11 50.24 -19.53 52.44 -20 55 C-20.5 55.99 -20.5 55.99 -21 57 C-23.02 62.26 -23.85 67.51 -24.62 73.06 C-24.76 73.99 -24.89 74.91 -25.02 75.87 C-25.98 82.97 -26.36 89.83 -26 97 C-25.01 97.5 -25.01 97.5 -24 98 C-23.8 99.63 -23.6 101.26 -23.41 102.9 C-22.64 106.85 -20.72 110.38 -19 114 C-17.84 116.69 -17.03 118.79 -16.62 121.69 C-16.42 122.45 -16.21 123.21 -16 124 C-14.67 124.67 -13.34 125.34 -12 126 C-10.75 127.17 -9.54 128.38 -8.38 129.62 C-6.66 131.51 -6.66 131.51 -5 133 C-4.34 133 -3.68 133 -3 133 C-3 133.99 -3 134.98 -3 136 C-2.07 135.94 -1.14 135.88 -0.19 135.81 C0.86 135.87 1.92 135.94 3 136 C3.4 136.49 3.8 136.98 4.22 137.48 C7.02 139.87 10.2 139.48 13.73 139.51 C14.48 139.53 15.23 139.55 16 139.57 C18.4 139.62 20.79 139.65 23.19 139.69 C24.81 139.72 26.44 139.76 28.06 139.79 C32.04 139.88 36.02 139.94 40 140 C40.33 139.34 40.66 138.68 41 138 C41 138.66 41 139.32 41 140 C41.99 139.34 42.98 138.68 44 138 C46 137 46 137 48.19 136.62 C51.19 136.06 51.19 136.06 54.5 134.38 C58 133 58 133 63 134 C63 142.25 63 150.5 63 159 C59.8 160.07 57.34 160 54 160 C53.67 160.33 53.34 160.66 53 161 C51.04 161.19 49.07 161.38 47.11 161.52 C44.9 161.85 44.9 161.85 43.22 163.5 C40.07 165.63 36.94 165.57 33.25 165.69 C32.55 165.72 31.86 165.76 31.14 165.79 C29.43 165.87 27.71 165.94 26 166 C26 166.33 26 166.66 26 167 C18.97 168.51 12.11 167.64 5 167 C5 166.67 5 166.34 5 166 C1.37 165.67 -2.26 165.34 -6 165 C-6 164.67 -6 164.34 -6 164 C-7.39 163.85 -7.39 163.85 -8.81 163.69 C-12.16 162.97 -12.8 162.41 -15 160 C-15.99 160 -16.98 160 -18 160 C-18 159.01 -18 158.02 -18 157 C-19.32 157.33 -20.64 157.66 -22 158 C-22.33 157.01 -22.66 156.02 -23 155 C-24.65 154.67 -26.3 154.34 -28 154 C-28.33 153.01 -28.66 152.02 -29 151 C-29.87 150.79 -29.87 150.79 -30.77 150.57 C-37.58 148.82 -42.89 140.58 -46.35 134.75 C-49.6 128.99 -52.47 123.1 -55 117 C-55.33 117 -55.66 117 -56 117 C-56.19 115.48 -56.19 115.48 -56.38 113.94 C-56.98 110.12 -57.87 106.68 -59 103 C-59.33 103 -59.66 103 -60 103 C-60.17 98.64 -60.33 94.29 -60.48 89.93 C-60.54 88.46 -60.59 86.98 -60.65 85.5 C-61.55 62.33 -61.55 62.33 -58 57 C-58.33 56.67 -58.66 56.34 -59 56 C-58.67 55.34 -58.34 54.68 -58 54 C-57.34 54 -56.68 54 -56 54 C-56.09 52.24 -56.09 52.24 -56.19 50.44 C-56.2 45.93 -55.1 42.97 -53 39 C-52.01 38.5 -52.01 38.5 -51 38 C-49.54 35.72 -48.21 33.43 -47 31 C-42.78 25.57 -38.43 20.37 -33.5 15.56 C-30.91 13.07 -30.91 13.07 -29 10 C-25.38 8.5 -22.96 8 -19 8 C-19 7.34 -19 6.68 -19 6 C-16.35 4.54 -15.11 4 -12 4 C-12 3.34 -12 2.68 -12 2 C-8.04 2 -4.08 2 0 2 C0 1.34 0 0.68 0 0 Z M1 1 C1 1.33 1 1.66 1 2 C2.65 2 4.3 2 6 2 C6 1.67 6 1.34 6 1 C4.35 1 2.7 1 1 1 Z M-11 3 C-7 4 -7 4 -7 4 Z M-28 11 C-28.33 11.66 -28.66 12.32 -29 13 C-28.01 12.67 -27.02 12.34 -26 12 C-26.66 11.67 -27.32 11.34 -28 11 Z M59 20 C60 22 60 22 60 22 Z M-16 40 C-15 42 -15 42 -15 42 Z M-53 41 C-52 44 -52 44 -52 44 Z M-55 47 C-54 49 -54 49 -54 49 Z M-24 58 C-23 61 -23 61 -23 61 Z M-59 60 C-59 61.98 -59 63.96 -59 66 C-58.67 66 -58.34 66 -58 66 C-58 64.02 -58 62.04 -58 60 C-58.33 60 -58.66 60 -59 60 Z M-26 66 C-25 69 -25 69 -25 69 Z M-27 69 C-27 70.98 -27 72.96 -27 75 C-26.67 75 -26.34 75 -26 75 C-26 73.02 -26 71.04 -26 69 C-26.33 69 -26.66 69 -27 69 Z M-28 77 C-27 80 -27 80 -27 80 Z M-28 82 C-27 84 -27 84 -27 84 Z M-26 99 C-25 102 -25 102 -25 102 Z M13 141 C13 141.33 13 141.66 13 142 C19.93 142 26.86 142 34 142 C34 141.67 34 141.34 34 141 C27.07 141 20.14 141 13 141 Z M61 152 C61 153.98 61 155.96 61 158 C61.33 158 61.66 158 62 158 C62 156.02 62 154.04 62 152 C61.67 152 61.34 152 61 152 Z " fill="#1D2C6F" transform="translate(1032,253)"/>
<path d="M0 0 C1.83 0.37 1.83 0.37 4 1 C5.59 1.1 7.18 1.15 8.77 1.16 C9.73 1.17 10.68 1.18 11.66 1.19 C12.71 1.19 13.75 1.2 14.83 1.21 C16.51 1.22 16.51 1.22 18.22 1.24 C21.85 1.27 25.48 1.29 29.11 1.32 C31.35 1.33 33.59 1.35 35.83 1.37 C44.14 1.44 52.44 1.5 60.75 1.56 C88.59 1.78 88.59 1.78 117 2 C117 55.13 117 108.26 117 163 C114.38 164.31 112.62 164.02 109.7 163.88 C108.11 163.81 108.11 163.81 106.49 163.73 C105.38 163.68 104.27 163.62 103.12 163.56 C100.94 163.46 98.76 163.36 96.57 163.25 C95.6 163.21 94.63 163.16 93.63 163.11 C91.42 163.02 89.21 163 87 163 C86.67 163 86.34 163 86 163 C86 115.15 86 67.3 86 18 C57.62 18 29.24 18 0 18 C0 13.05 0 8.1 0 3 C-0.66 2.67 -1.32 2.34 -2 2 C-1.34 1.34 -0.68 0.68 0 0 Z M115 19 C116 21 116 21 116 21 Z M115 24 C115 26.31 115 28.62 115 31 C115.33 31 115.66 31 116 31 C116 28.69 116 26.38 116 24 C115.67 24 115.34 24 115 24 Z M115 34 C116 37 116 37 116 37 Z M115 134 C115 142.25 115 150.5 115 159 C115.33 159 115.66 159 116 159 C116 150.75 116 142.5 116 134 C115.67 134 115.34 134 115 134 Z " fill="#DC3529" transform="translate(463,253)"/>
<path d="M0 0 C0.99 0.5 0.99 0.5 2 1 C4.02 1.14 6.04 1.23 8.07 1.28 C9.88 1.34 9.88 1.34 11.72 1.39 C14.29 1.46 16.85 1.54 19.41 1.61 C20.62 1.64 21.82 1.68 23.07 1.72 C24.18 1.75 25.29 1.78 26.44 1.81 C29 2 29 2 30 3 C30.11 4.83 30.15 6.67 30.16 8.51 C30.17 9.71 30.18 10.9 30.19 12.14 C30.19 13.47 30.2 14.81 30.21 16.15 C30.21 17.55 30.22 18.95 30.24 20.35 C30.26 24.16 30.28 27.97 30.3 31.78 C30.33 35.75 30.35 39.73 30.38 43.71 C30.43 51.24 30.47 58.78 30.52 66.32 C30.57 74.89 30.62 83.47 30.68 92.05 C30.79 109.7 30.9 127.35 31 145 C34.1 146.55 37.36 146.13 40.75 146.11 C41.55 146.11 42.35 146.11 43.18 146.11 C45.83 146.11 48.48 146.11 51.13 146.1 C52.97 146.1 54.8 146.09 56.64 146.09 C61.48 146.09 66.31 146.08 71.15 146.07 C76.08 146.06 81.02 146.05 85.95 146.05 C95.63 146.04 105.32 146.02 115 146 C116.03 149.08 116.17 151.33 116.19 154.56 C116.2 155.53 116.22 156.5 116.23 157.5 C116 160 116 160 114 162 C108.28 163.18 102.62 163.14 96.8 163.11 C95.8 163.11 94.8 163.11 93.77 163.11 C90.47 163.11 87.18 163.11 83.89 163.1 C81.6 163.1 79.31 163.09 77.01 163.09 C70.99 163.09 64.97 163.08 58.95 163.07 C52.81 163.06 46.67 163.05 40.54 163.05 C29.01 163.04 17.48 163.02 5.96 163 C4.31 163 2.65 163 1 163 C-0.41 160.17 -0.12 157.81 -0.12 154.65 C-0.12 153.99 -0.12 153.33 -0.12 152.65 C-0.12 150.43 -0.12 148.21 -0.11 145.99 C-0.11 144.41 -0.11 142.82 -0.11 141.23 C-0.11 136.92 -0.11 132.6 -0.1 128.29 C-0.1 123.78 -0.09 119.27 -0.09 114.77 C-0.09 106.23 -0.08 97.69 -0.07 89.15 C-0.06 79.43 -0.06 69.71 -0.05 59.99 C-0.04 39.99 -0.02 20 0 0 Z " fill="#D8382D" transform="translate(392,253)"/>
<path d="M0 0 C0 0.66 0 1.32 0 2 C0.6 2.08 1.2 2.16 1.81 2.25 C4.65 3.22 5.5 4.44 7 7 C7 7.99 7 8.98 7 10 C7.99 10 8.98 10 10 10 C10 10.99 10 11.98 10 13 C10.66 13.99 11.32 14.98 12 16 C11.67 16.66 11.34 17.32 11 18 C11.3 19.34 11.64 20.67 12 22 C12.22 24.75 12.41 27.49 12.56 30.25 C12.78 34.09 12.78 34.09 13 38 C5.41 38 -2.18 38 -10 38 C-10 38.66 -10 39.32 -10 40 C-20.38 40 -20.38 40 -25 38 C-25 38.66 -25 39.32 -25 40 C-26.98 39.67 -28.96 39.34 -31 39 C-31 39.99 -31 40.98 -31 42 C-30.34 42.33 -29.68 42.66 -29 43 C-28.75 43.7 -28.5 44.4 -28.25 45.12 C-26.54 49.06 -24.18 52.12 -21 55 C-18.29 56.03 -18.29 56.03 -16 56 C-16 56.66 -16 57.32 -16 58 C-15.01 57.67 -14.02 57.34 -13 57 C-11.1 57.09 -9.2 57.24 -7.31 57.44 C-6.32 57.54 -5.32 57.64 -4.3 57.75 C-3.54 57.83 -2.78 57.91 -2 58 C-2 57.34 -2 56.68 -2 56 C0.31 56 2.62 56 5 56 C5 55.34 5 54.68 5 54 C7.97 54 10.94 54 14 54 C13.67 54.99 13.34 55.98 13 57 C12.93 58.73 12.92 60.46 12.94 62.19 C12.95 63.09 12.96 63.99 12.96 64.92 C12.98 65.61 12.99 66.29 13 67 C11.02 67.5 11.02 67.5 9 68 C9.33 68.66 9.66 69.32 10 70 C2.49 71.19 -4.97 71.18 -12.56 71.19 C-13.85 71.2 -15.14 71.21 -16.47 71.22 C-28.51 71.24 -28.51 71.24 -34 69 C-34.66 68.34 -35.32 67.68 -36 67 C-36.99 66.67 -37.98 66.34 -39 66 C-40.75 64.26 -40.75 64.26 -42.56 62.12 C-43.16 61.43 -43.76 60.73 -44.38 60.01 C-50.76 52.1 -52.18 43.95 -52.19 34.06 C-52.2 33.39 -52.21 32.71 -52.22 32.01 C-52.24 27.26 -51.47 23.46 -50 19 C-50.66 18.67 -51.32 18.34 -52 18 C-51.01 18 -50.02 18 -49 18 C-49.25 17.28 -49.5 16.56 -49.75 15.81 C-50 13 -50 13 -48.06 10.31 C-47.38 9.55 -46.7 8.79 -46 8 C-46 7.34 -46 6.68 -46 6 C-45.24 5.92 -44.47 5.84 -43.69 5.75 C-40.4 4.83 -39.9 3.73 -38 1 C-35.94 -0.31 -35.94 -0.31 -34 -1 C-33.34 -0.67 -32.68 -0.34 -32 0 C-32 -0.66 -32 -1.32 -32 -2 C-20.76 -5.33 -10.64 -5.89 0 0 Z M-23 10 C-23.33 10.66 -23.66 11.32 -24 12 C-24.66 12 -25.32 12 -26 12 C-26.29 12.74 -26.58 13.49 -26.88 14.25 C-28 17 -28 17 -29.12 18.94 C-30.39 21.55 -30.39 21.55 -30 27 C-22.41 27 -14.82 27 -7 27 C-7.1 25.06 -7.21 23.12 -7.31 21.12 C-7.37 20.03 -7.43 18.94 -7.49 17.82 C-7.66 16.89 -7.83 15.96 -8 15 C-8.99 14.34 -9.98 13.68 -11 13 C-11.33 12.01 -11.66 11.02 -12 10 C-15.63 10 -19.26 10 -23 10 Z " fill="#2D221A" transform="translate(302,510)"/>
<path d="M0 0 C6.6 0.33 13.2 0.66 20 1 C21.51 4.03 21.13 7.16 21.11 10.48 C21.11 11.25 21.11 12.02 21.11 12.81 C21.11 15.37 21.11 17.92 21.1 20.48 C21.1 22.24 21.09 24.01 21.09 25.78 C21.09 30.44 21.08 35.1 21.07 39.76 C21.06 44.51 21.05 49.26 21.05 54.02 C21.04 63.34 21.02 72.67 21 82 C21.99 82 22.98 82 24 82 C24 82.66 24 83.32 24 84 C25.66 83.99 25.66 83.99 27.35 83.98 C31.45 83.97 35.55 83.95 39.64 83.95 C41.42 83.94 43.19 83.93 44.97 83.92 C47.51 83.91 50.06 83.91 52.61 83.9 C53.8 83.89 53.8 83.89 55.02 83.89 C58.28 83.89 60.89 83.96 64 85 C63.72 86.52 63.72 86.52 63.44 88.06 C63 91.98 63.29 95.14 64 99 C61.3 100.35 59.2 100.12 56.17 100.11 C54.95 100.11 53.73 100.11 52.47 100.11 C51.14 100.11 49.8 100.1 48.46 100.1 C47.1 100.1 45.73 100.09 44.37 100.09 C40.77 100.09 37.18 100.08 33.59 100.07 C29.92 100.06 26.25 100.05 22.59 100.05 C15.39 100.04 8.2 100.02 1 100 C-0.72 96.55 -0.13 92.57 -0.11 88.78 C-0.11 87.82 -0.11 86.86 -0.11 85.88 C-0.11 82.71 -0.11 79.54 -0.1 76.37 C-0.1 74.17 -0.09 71.98 -0.09 69.78 C-0.09 64 -0.08 58.22 -0.07 52.43 C-0.06 46.54 -0.05 40.64 -0.05 34.74 C-0.04 23.16 -0.02 11.58 0 0 Z M19 4 C20 6 20 6 20 6 Z M19 52 C19 56.95 19 61.9 19 67 C19.33 67 19.66 67 20 67 C20 62.05 20 57.1 20 52 C19.67 52 19.34 52 19 52 Z M19 78 C20 80 20 80 20 80 Z M46 97 C46 97.33 46 97.66 46 98 C47.65 98 49.3 98 51 98 C51 97.67 51 97.34 51 97 C49.35 97 47.7 97 46 97 Z M56 97 C60 98 60 98 60 98 Z " fill="#352920" transform="translate(40,482)"/>
<path d="M0 0 C0 0.33 0 0.66 0 1 C1.26 1.04 2.53 1.07 3.83 1.11 C5.49 1.18 7.15 1.25 8.81 1.31 C9.65 1.34 10.48 1.36 11.34 1.38 C12.54 1.43 12.54 1.43 13.77 1.49 C14.88 1.53 14.88 1.53 16.01 1.57 C18.53 2.11 19.45 2.96 21 5 C21.29 7.92 21.29 7.92 21.19 11.19 C21.15 12.82 21.15 12.82 21.11 14.48 C21.07 15.31 21.04 16.14 21 17 C19.35 17 17.7 17 16 17 C16 16.34 16 15.68 16 15 C14.27 15.28 14.27 15.28 12.5 15.56 C8.14 16.12 4.33 15.7 0 15 C0.5 16.49 0.5 16.49 1 18 C0.01 18.5 0.01 18.5 -1 19 C-1 23.62 -1 28.24 -1 33 C4.28 33.33 9.56 33.66 15 34 C15 37.96 15 41.92 15 46 C9.06 46.33 3.12 46.66 -3 47 C-3.01 48.78 -3.03 50.55 -3.04 52.38 C-3.1 58.25 -3.16 64.11 -3.24 69.97 C-3.28 73.53 -3.32 77.09 -3.35 80.64 C-3.38 84.73 -3.43 88.81 -3.49 92.9 C-3.49 94.18 -3.5 95.46 -3.51 96.78 C-3.53 97.96 -3.55 99.14 -3.57 100.36 C-3.58 101.4 -3.59 102.44 -3.6 103.52 C-3.73 104.34 -3.86 105.16 -4 106 C-7.71 108.47 -9.15 108.07 -13.5 107.62 C-18.24 107.16 -18.24 107.16 -23 107 C-23.5 78.29 -23.5 78.29 -24 49 C-27.96 48.5 -27.96 48.5 -32 48 C-33.88 46.12 -33.39 42.96 -33.56 40.44 C-33.65 39.24 -33.73 38.04 -33.82 36.81 C-33.88 35.88 -33.94 34.95 -34 34 C-29.05 33.5 -29.05 33.5 -24 33 C-23.67 26.4 -23.34 19.8 -23 13 C-22.34 13 -21.68 13 -21 13 C-20.67 12.01 -20.34 11.02 -20 10 C-17.51 7.77 -14.73 5.93 -12 4 C-10.97 3.22 -9.94 2.43 -8.88 1.62 C-5.62 -0.21 -3.68 -0.35 0 0 Z M-22 14 C-21 16 -21 16 -21 16 Z M9 14 C13 15 13 15 13 15 Z M-4 21 C-4 24.96 -4 28.92 -4 33 C-3.67 33 -3.34 33 -3 33 C-3 29.04 -3 25.08 -3 21 C-3.33 21 -3.66 21 -4 21 Z M-32 46 C-32 46.33 -32 46.66 -32 47 C-29.69 47 -27.38 47 -25 47 C-25 46.67 -25 46.34 -25 46 C-27.31 46 -29.62 46 -32 46 Z " fill="#2D2017" transform="translate(213,474)"/>
<path d="M0 0 C0.78 0.06 1.56 0.13 2.36 0.19 C3.21 0.25 4.06 0.31 4.93 0.37 C6.25 0.49 6.25 0.49 7.6 0.61 C8.5 0.68 9.39 0.74 10.31 0.81 C12.51 0.98 14.71 1.16 16.92 1.36 C17.05 10.16 17.18 18.96 17.31 27.75 C17.37 31.84 17.43 35.92 17.49 40.01 C17.55 43.95 17.6 47.89 17.66 51.83 C17.69 53.34 17.71 54.84 17.73 56.35 C17.76 58.45 17.79 60.56 17.82 62.67 C17.84 63.87 17.86 65.06 17.88 66.3 C17.91 68.65 17.92 71.01 17.92 73.36 C16.93 74.35 16.93 74.35 15.92 75.36 C13.64 75.34 13.64 75.34 10.98 74.99 C8.24 74.64 5.68 74.36 2.92 74.36 C0.58 74.05 -1.75 73.71 -4.08 73.36 C-4.28 64.44 -4.47 55.51 -4.63 46.58 C-4.71 42.43 -4.79 38.29 -4.88 34.14 C-4.97 30.14 -5.05 26.14 -5.12 22.14 C-5.14 20.62 -5.18 19.09 -5.22 17.56 C-5.27 15.43 -5.3 13.29 -5.33 11.15 C-5.36 9.93 -5.38 8.72 -5.41 7.46 C-5 3.53 -4.21 0.73 0 0 Z M14.92 55.36 C15.92 57.36 15.92 57.36 15.92 57.36 Z M14.92 60.36 C15.92 62.36 15.92 62.36 15.92 62.36 Z " fill="#2B1D13" transform="translate(134.084716796875,506.6376953125)"/>
<path d="M0 0 C1.07 1.97 2.07 3.97 3 6 C3.99 6.66 4.98 7.32 6 8 C5.67 12.95 5.34 17.9 5 23 C3.35 23.66 1.7 24.32 0 25 C-1.34 27.02 -1.34 27.02 -2 29 C-8.61 29.23 -13.71 28.1 -20 26 C-21.19 23.44 -21.19 23.44 -22 21 C-22.66 21 -23.32 21 -24 21 C-24.22 19.25 -24.43 17.5 -24.62 15.75 C-24.74 14.78 -24.86 13.8 -24.98 12.8 C-25 9.83 -24.48 8.51 -23 6 C-22.9 5.32 -22.79 4.64 -22.69 3.94 C-21.63 0.96 -19.78 0.33 -17 -1 C-11.44 -2.61 -5.06 -3.1 0 0 Z " fill="#202E6A" transform="translate(573,201)"/>
<path d="M0 0 C1.29 0.01 2.59 0.01 3.92 0.02 C4.95 0.02 4.95 0.02 6 0.02 C8.2 0.03 10.4 0.04 12.6 0.05 C14.09 0.06 15.58 0.06 17.07 0.06 C20.73 0.08 24.38 0.09 28.04 0.11 C28.04 0.44 28.04 0.77 28.04 1.11 C18.14 1.11 8.24 1.11 -1.96 1.11 C-2.01 28.46 -2.04 55.81 -2.06 83.15 C-2.07 95.85 -2.09 108.54 -2.11 121.24 C-2.13 132.3 -2.14 143.37 -2.15 154.43 C-2.15 160.29 -2.16 166.15 -2.17 172.01 C-2.18 177.52 -2.19 183.03 -2.19 188.54 C-2.19 190.57 -2.19 192.6 -2.2 194.63 C-2.21 197.38 -2.21 200.14 -2.2 202.9 C-2.21 203.71 -2.21 204.52 -2.22 205.36 C-2.36 209.7 -2.36 209.7 0.04 213.11 C-1.61 213.44 -3.26 213.77 -4.96 214.11 C-4.85 186.36 -4.74 158.6 -4.62 130.85 C-4.56 117.96 -4.51 105.08 -4.46 92.19 C-4.42 80.97 -4.37 69.74 -4.32 58.51 C-4.3 52.56 -4.27 46.61 -4.25 40.67 C-4.23 35.07 -4.21 29.48 -4.18 23.89 C-4.17 21.83 -4.16 19.77 -4.16 17.71 C-4.15 14.92 -4.13 12.12 -4.12 9.32 C-4.12 8.49 -4.12 7.67 -4.11 6.82 C-4.07 0.16 -4.07 0.16 0 0 Z " fill="#000002" transform="translate(36.959228515625,201.886474609375)"/>
<path d="M0 0 C1.32 0 2.64 0 4 0 C4 53.13 4 106.26 4 161 C1.94 156.89 1.8 155.55 2.02 151.14 C2.08 150.03 2.13 148.91 2.18 147.76 C2.28 146.02 2.28 146.02 2.38 144.25 C2.46 142.49 2.46 142.49 2.55 140.69 C2.69 137.79 2.84 134.9 3 132 C2.34 132 1.68 132 1 132 C1 99.99 1 67.98 1 35 C1.66 35 2.32 35 3 35 C3 34.01 3 33.02 3 32 C2.34 32 1.68 32 1 32 C1 31.01 1 30.02 1 29 C1.66 29 2.32 29 3 29 C3 26.69 3 24.38 3 22 C2.34 22 1.68 22 1 22 C1 21.01 1 20.02 1 19 C1.66 19 2.32 19 3 19 C3 18.34 3 17.68 3 17 C2.34 17 1.68 17 1 17 C0.8 11.26 0.73 6.39 3 1 C2.01 0.67 1.02 0.34 0 0 Z " fill="#B8ADB7" transform="translate(576,255)"/>
<path d="M0 0 C1.31 -0.01 2.61 -0.01 3.96 -0.02 C7.62 0.25 7.62 0.25 12.62 2.25 C12.62 7.2 12.62 12.15 12.62 17.25 C11.63 17.25 10.65 17.25 9.62 17.25 C10.28 17.91 10.94 18.57 11.62 19.25 C8.31 19.28 5 19.3 1.69 19.31 C0.74 19.32 -0.2 19.33 -1.18 19.34 C-2.53 19.34 -2.53 19.34 -3.9 19.35 C-5.15 19.36 -5.15 19.36 -6.43 19.36 C-8.38 19.25 -8.38 19.25 -9.38 18.25 C-9.69 15.6 -9.94 12.98 -10.12 10.31 C-10.19 9.57 -10.26 8.83 -10.33 8.06 C-10.48 5.91 -10.48 5.91 -10.38 2.25 C-6.61 -0.26 -4.49 -0.02 0 0 Z M9.62 3.25 C10.62 7.25 10.62 7.25 10.62 7.25 Z " fill="#231810" transform="translate(139.375,478.75)"/>
<path d="M0 0 C0.33 0 0.66 0 1 0 C1.15 20.17 1.3 40.35 1.44 60.52 C1.51 69.89 1.58 79.26 1.65 88.63 C1.71 96.79 1.77 104.95 1.83 113.11 C1.85 117.44 1.89 121.76 1.92 126.08 C1.95 130.15 1.98 134.22 2.01 138.28 C2.02 139.78 2.03 141.27 2.04 142.77 C2.06 144.8 2.07 146.84 2.08 148.88 C2.09 150.02 2.1 151.16 2.11 152.33 C2 155 2 155 1 157 C1.66 157.33 2.32 157.66 3 158 C2.01 158 1.02 158 0 158 C-1.08 154.51 -1.11 151.31 -1.08 147.67 C-1.08 146.37 -1.07 145.07 -1.06 143.73 C-1.05 142.29 -1.03 140.85 -1.02 139.41 C-1.01 137.89 -1 136.37 -0.99 134.86 C-0.97 130.74 -0.93 126.62 -0.9 122.5 C-0.87 118.19 -0.84 113.89 -0.81 109.58 C-0.75 101.43 -0.69 93.28 -0.63 85.12 C-0.55 75.84 -0.49 66.56 -0.42 57.28 C-0.29 38.19 -0.15 19.09 0 0 Z " fill="#F4F4F4" transform="translate(810,259)"/>
<path d="M0 0 C0.33 0 0.66 0 1 0 C1.22 1.79 1.43 3.58 1.62 5.38 C1.74 6.37 1.86 7.37 1.98 8.4 C1.99 9.69 1.99 9.69 2 11 C0 13 0 13 -2.78 13.24 C-3.97 13.24 -5.16 13.23 -6.38 13.23 C-7.03 13.23 -7.69 13.23 -8.36 13.23 C-10.52 13.23 -12.69 13.21 -14.85 13.2 C-16.35 13.19 -17.85 13.19 -19.35 13.19 C-23.3 13.18 -27.25 13.16 -31.2 13.14 C-35.22 13.12 -39.25 13.11 -43.28 13.1 C-51.19 13.08 -59.09 13.04 -67 13 C-67.33 12.01 -67.66 11.02 -68 10 C-67.34 9.01 -66.68 8.02 -66 7 C-65.67 7.99 -65.34 8.98 -65 10 C-33.32 10.5 -33.32 10.5 -1 11 C-1 8.69 -1 6.38 -1 4 C-0.5 1.56 -0.5 1.56 0 0 Z " fill="#918EA0" transform="translate(300,307)"/>
<path d="M0 0 C12.54 0 25.08 0 38 0 C38 0.33 38 0.66 38 1 C42.29 1.33 46.58 1.66 51 2 C51 2.33 51 2.66 51 3 C30.21 3.33 9.42 3.66 -12 4 C-12 3.34 -12 2.68 -12 2 C-8.04 2 -4.08 2 0 2 C0 1.34 0 0.68 0 0 Z M1 1 C1 1.33 1 1.66 1 2 C2.65 2 4.3 2 6 2 C6 1.67 6 1.34 6 1 C4.35 1 2.7 1 1 1 Z " fill="#3F4668" transform="translate(1032,253)"/>
<path d="M0 0 C0.33 0 0.66 0 1 0 C1 42.9 1 85.8 1 130 C0.67 130 0.34 130 0 130 C0 87.1 0 44.2 0 0 Z " fill="#F6F6F6" transform="translate(30,281)"/>
<path d="M0 0 C0.33 0 0.66 0 1 0 C1 41.58 1 83.16 1 126 C0.67 126 0.34 126 0 126 C0 84.42 0 42.84 0 0 Z " fill="#F5F1F1" transform="translate(547,276)"/>
<path d="M0 0 C1.84 0.37 1.84 0.37 4 1 C5.54 1.1 7.08 1.15 8.62 1.16 C9.54 1.17 10.46 1.18 11.41 1.19 C12.42 1.19 13.42 1.2 14.46 1.21 C15.52 1.22 16.59 1.23 17.68 1.24 C21.2 1.27 24.72 1.29 28.23 1.32 C30.67 1.34 33.11 1.36 35.55 1.38 C41.97 1.43 48.38 1.48 54.8 1.53 C61.35 1.58 67.9 1.64 74.45 1.69 C87.3 1.8 100.15 1.9 113 2 C113 2.33 113 2.66 113 3 C98.3 3.18 83.6 3.34 68.9 3.49 C62.08 3.57 55.25 3.64 48.43 3.72 C41.85 3.8 35.27 3.87 28.69 3.94 C26.17 3.96 23.65 3.99 21.14 4.03 C17.63 4.07 14.11 4.11 10.6 4.14 C9.55 4.15 8.5 4.17 7.42 4.19 C6.47 4.19 5.51 4.2 4.53 4.2 C3.28 4.22 3.28 4.22 2.01 4.23 C0 4 0 4 -2 2 C-1.34 1.34 -0.68 0.68 0 0 Z " fill="#DB362B" transform="translate(463,253)"/>
<path d="M0 0 C1.31 -0.01 2.61 -0.01 3.96 -0.02 C7.62 0.25 7.62 0.25 12.62 2.25 C12.3 6.21 11.97 10.17 11.62 14.25 C11.3 14.25 10.97 14.25 10.62 14.25 C10.3 10.62 9.97 6.99 9.62 3.25 C1.7 3.75 1.7 3.75 -6.38 4.25 C-6.38 8.87 -6.38 13.49 -6.38 18.25 C-0.44 18.25 5.5 18.25 11.62 18.25 C11.62 18.58 11.62 18.91 11.62 19.25 C8.31 19.28 5 19.3 1.69 19.31 C0.74 19.32 -0.2 19.33 -1.18 19.34 C-2.53 19.34 -2.53 19.34 -3.9 19.35 C-5.15 19.36 -5.15 19.36 -6.43 19.36 C-8.38 19.25 -8.38 19.25 -9.38 18.25 C-9.69 15.6 -9.94 12.98 -10.12 10.31 C-10.19 9.57 -10.26 8.83 -10.33 8.06 C-10.48 5.91 -10.48 5.91 -10.38 2.25 C-6.61 -0.26 -4.49 -0.02 0 0 Z " fill="#6A6876" transform="translate(139.375,478.75)"/>
<path d="M0 0 C0.33 0 0.66 0 1 0 C1 35.64 1 71.28 1 108 C0.67 108 0.34 108 0 108 C0 72.36 0 36.72 0 0 Z " fill="#F6F6F6" transform="translate(934,300)"/>
<path d="M0 0 C0.33 0 0.66 0 1 0 C1 19.14 1 38.28 1 58 C0.01 58 -0.98 58 -2 58 C-1.99 57.45 -1.97 56.89 -1.96 56.32 C-1.83 50.51 -1.7 44.7 -1.57 38.9 C-1.52 36.73 -1.48 34.57 -1.43 32.41 C-1.36 29.28 -1.29 26.16 -1.22 23.04 C-1.2 22.08 -1.18 21.13 -1.15 20.15 C-1.04 14.76 -1 9.38 -1.09 3.99 C-1 2 -1 2 0 0 Z " fill="#000002" transform="translate(208,522)"/>
<path d="M0 0 C26.73 0 53.46 0 81 0 C81 0.33 81 0.66 81 1 C54.27 1 27.54 1 0 1 C0 0.67 0 0.34 0 0 Z " fill="#F6F6F6" transform="translate(409,416)"/>
<path d="M0 0 C0.33 22.44 0.66 44.88 1 68 C0.34 68 -0.32 68 -1 68 C-1.01 67.2 -1.02 66.41 -1.02 65.58 C-1.1 58.08 -1.19 50.57 -1.29 43.07 C-1.34 39.21 -1.38 35.35 -1.42 31.49 C-1.46 27.77 -1.51 24.05 -1.56 20.33 C-1.58 18.91 -1.59 17.49 -1.6 16.06 C-1.62 14.08 -1.65 12.09 -1.68 10.1 C-1.69 8.97 -1.71 7.84 -1.72 6.67 C-1.73 3.85 -1.73 3.85 -4 2 C-1 0 -1 0 0 0 Z " fill="#B1A7B0" transform="translate(151,508)"/>
<path d="M0 0 C2 2 2 2 2.24 4.78 C2.24 5.97 2.23 7.16 2.23 8.38 C2.23 9.03 2.23 9.69 2.23 10.36 C2.23 12.52 2.21 14.69 2.2 16.85 C2.19 18.35 2.19 19.85 2.19 21.35 C2.18 25.3 2.16 29.25 2.14 33.2 C2.12 37.22 2.11 41.25 2.1 45.28 C2.08 53.19 2.04 61.09 2 69 C1.67 69 1.34 69 1 69 C0.98 67.83 0.98 67.83 0.97 66.64 C0.87 59.3 0.77 51.96 0.66 44.62 C0.61 40.84 0.55 37.07 0.5 33.29 C0.45 29.65 0.4 26.01 0.35 22.36 C0.33 20.97 0.31 19.58 0.29 18.2 C0.27 16.25 0.24 14.3 0.21 12.35 C0.19 11.24 0.17 10.13 0.16 8.99 C0.07 6.01 0.07 6.01 -0.58 3.17 C-0.72 2.45 -0.86 1.74 -1 1 C-0.67 0.67 -0.34 0.34 0 0 Z " fill="#B7ADB7" transform="translate(130,510)"/>
<path d="M0 0 C9.9 0 19.8 0 30 0 C25.78 2.11 23.86 2.22 19.25 2.12 C18.08 2.11 16.91 2.09 15.7 2.07 C14.37 2.04 14.37 2.04 13 2 C13 2.66 13 3.32 13 4 C4.75 4 -3.5 4 -12 4 C-12 3.34 -12 2.68 -12 2 C-8.04 2 -4.08 2 0 2 C0 1.34 0 0.68 0 0 Z " fill="#091135" transform="translate(684,253)"/>
<path d="M0 0 C3.21 1.4 5.24 3.07 7.62 5.62 C9.34 7.51 9.34 7.51 11 9 C11.66 9 12.32 9 13 9 C13.33 10.65 13.66 12.3 14 14 C13.01 14 12.02 14 11 14 C10.67 13.34 10.34 12.68 10 12 C9.24 11.57 8.47 11.13 7.69 10.69 C4.03 8.39 1.6 5.84 0.25 1.69 C0.17 1.13 0.09 0.57 0 0 Z " fill="#818190" transform="translate(1016,377)"/>
<path d="M0 0 C6.93 0 13.86 0 21 0 C21 0.66 21 1.32 21 2 C16.9 2.39 12.79 2.76 8.69 3.12 C7.52 3.24 6.35 3.35 5.15 3.46 C4.03 3.56 2.91 3.66 1.76 3.76 C0.21 3.9 0.21 3.9 -1.36 4.04 C-4 4 -4 4 -7 2 C-4.69 2 -2.38 2 0 2 C0 1.34 0 0.68 0 0 Z " fill="#646B88" transform="translate(878,253)"/>
<path d="M0 0 C0.66 0.33 1.32 0.66 2 1 C-0.92 5.72 -4.2 9.42 -8.19 13.25 C-12.06 16.76 -12.06 16.76 -15 21 C-15.66 20.67 -16.32 20.34 -17 20 C-14.01 14.47 -10.71 10.6 -5.87 6.61 C-3.58 4.64 -1.77 2.44 0 0 Z " fill="#9193A7" transform="translate(857,262)"/>
<path d="M0 0 C0.66 0.33 1.32 0.66 2 1 C2 5.62 2 10.24 2 15 C7.94 15 13.88 15 20 15 C20 15.33 20 15.66 20 16 C16.69 16.03 13.38 16.05 10.06 16.06 C9.12 16.07 8.17 16.08 7.2 16.09 C5.85 16.09 5.85 16.09 4.47 16.1 C3.22 16.11 3.22 16.11 1.95 16.11 C0 16 0 16 -1 15 C-1.1 12.86 -1.13 10.71 -1.12 8.56 C-1.13 7.39 -1.13 6.21 -1.13 5 C-1 2 -1 2 0 0 Z " fill="#AAA7AD" transform="translate(131,482)"/>
<path d="M0 0 C3.56 1.53 5.99 3.62 8.75 6.31 C9.55 7.07 10.35 7.83 11.17 8.61 C13.28 11.36 13.41 12.63 13 16 C5.76 10.5 5.76 10.5 5 5 C3.03 3.85 3.03 3.85 1 3 C0.67 2.01 0.34 1.02 0 0 Z " fill="#9594A3" transform="translate(137,209)"/>
<path d="M0 0 C0.99 0.66 1.98 1.32 3 2 C3.29 4.82 3.29 4.82 3.19 8.12 C3.16 9.22 3.13 10.32 3.11 11.45 C3.07 12.29 3.04 13.13 3 14 C1.35 14 -0.3 14 -2 14 C-2 13.34 -2 12.68 -2 12 C-2.99 11.67 -3.98 11.34 -5 11 C-3.68 11 -2.36 11 -1 11 C-1.33 9.68 -1.66 8.36 -2 7 C-1.34 7 -0.68 7 0 7 C0.33 5.35 0.66 3.7 1 2 C0.01 1.67 -0.98 1.34 -2 1 C-1.34 0.67 -0.68 0.34 0 0 Z " fill="#0E0D0F" transform="translate(231,477)"/>
<path d="M0 0 C0.66 0.33 1.32 0.66 2 1 C2.07 6.52 2.13 12.03 2.16 17.55 C2.18 19.43 2.2 21.31 2.23 23.19 C2.26 25.88 2.28 28.58 2.29 31.27 C2.31 32.12 2.32 32.96 2.34 33.83 C2.34 36.19 2.34 36.19 2 40 C1.01 40.66 0.02 41.32 -1 42 C-0.67 28.14 -0.34 14.28 0 0 Z " fill="#AAA2AD" transform="translate(722,341)"/>
<path d="M0 0 C0.33 0.66 0.66 1.32 1 2 C-0.98 2 -2.96 2 -5 2 C-4.67 5.63 -4.34 9.26 -4 13 C-5.32 13.33 -6.64 13.66 -8 14 C-8.33 9.71 -8.66 5.42 -9 1 C-4.54 0.5 -4.54 0.5 0 0 Z " fill="#1B1818" transform="translate(188,507)"/>
<path d="M0 0 C1.32 0 2.64 0 4 0 C4 5.94 4 11.88 4 18 C3.01 17.67 2.02 17.34 1 17 C0.8 11.26 0.73 6.39 3 1 C2.01 0.67 1.02 0.34 0 0 Z " fill="#C1B8C0" transform="translate(576,255)"/>
<path d="M0 0 C14.52 0 29.04 0 44 0 C44 0.33 44 0.66 44 1 C29.48 1 14.96 1 0 1 C0 0.67 0 0.34 0 0 Z " fill="#F1F1F0" transform="translate(501,253)"/>
<path d="M0 0 C0.33 0 0.66 0 1 0 C1 13.86 1 27.72 1 42 C0.67 42 0.34 42 0 42 C0 28.14 0 14.28 0 0 Z " fill="#E4E4E4" transform="translate(30,238)"/>
<path d="M0 0 C0.44 0.38 0.87 0.75 1.32 1.14 C1.92 1.65 2.51 2.16 3.12 2.69 C4.08 3.51 4.08 3.51 5.05 4.34 C6.8 5.83 8.59 7.29 10.38 8.75 C13 11 13 11 14 13 C13.01 13.33 12.02 13.66 11 14 C9.16 12.24 7.33 10.47 5.5 8.69 C4.98 8.19 4.45 7.69 3.91 7.17 C2.55 5.84 1.27 4.42 0 3 C0 2.01 0 1.02 0 0 Z " fill="#515154" transform="translate(989,390)"/>
<path d="M0 0 C0.33 0 0.66 0 1 0 C1 6.27 1 12.54 1 19 C2.65 19 4.3 19 6 19 C5.67 19.66 5.34 20.32 5 21 C4.01 20.67 3.02 20.34 2 20 C2.33 20.99 2.66 21.98 3 23 C2.34 23 1.68 23 1 23 C-1.18 19.73 -1.21 19.06 -0.98 15.33 C-0.92 14.44 -0.87 13.55 -0.82 12.63 C-0.76 11.7 -0.69 10.77 -0.62 9.81 C-0.57 8.87 -0.51 7.93 -0.45 6.96 C-0.31 4.64 -0.16 2.32 0 0 Z " fill="#020205" transform="translate(650,267)"/>
<path d="M0 0 C0.66 0.66 1.32 1.32 2 2 C1.67 2.99 1.34 3.98 1 5 C0.34 5 -0.32 5 -1 5 C-1.43 6.14 -1.43 6.14 -1.88 7.31 C-3 10 -3 10 -5 13 C-5 11.68 -5 10.36 -5 9 C-5.66 8.67 -6.32 8.34 -7 8 C-6.34 7.22 -5.68 6.43 -5 5.62 C-2.8 3.28 -2.8 3.28 -3 1 C-2.01 0.67 -1.02 0.34 0 0 Z " fill="#6B6463" transform="translate(259,515)"/>
<path d="M0 0 C2.67 1.33 5.33 2.67 8 4 C8 4.99 8 5.98 8 7 C8.66 7.33 9.32 7.66 10 8 C9.67 8.66 9.34 9.32 9 10 C8.34 10 7.68 10 7 10 C5.31 8.02 3.65 6.02 2 4 C1.34 3.67 0.68 3.34 0 3 C0 2.01 0 1.02 0 0 Z " fill="#5E5D65" transform="translate(286,280)"/>
<path d="M0 0 C0.66 0.33 1.32 0.66 2 1 C0.92 2.05 0.92 2.05 -0.19 3.12 C-1.12 4.03 -2.04 4.94 -3 5.88 C-3.93 6.78 -4.86 7.68 -5.81 8.62 C-8.23 10.71 -8.23 10.71 -8 13 C-9.98 13.99 -9.98 13.99 -12 15 C-12.31 12.69 -12.31 12.69 -12 10 C-9.94 8.62 -9.94 8.62 -7 7 C-4.57 4.76 -2.28 2.4 0 0 Z " fill="#868DAE" transform="translate(232,265)"/>
<path d="M0 0 C2.38 0.18 3.7 0.7 5.38 2.4 C6.62 3.91 7.81 5.45 9 7 C8.01 7.66 7.02 8.32 6 9 C5.67 8.34 5.34 7.68 5 7 C4.01 6.67 3.02 6.34 2 6 C0.81 2.94 0.81 2.94 0 0 Z " fill="#5B5D6C" transform="translate(915,262)"/>
<path d="M0 0 C2.97 0 5.94 0 9 0 C8.34 1.32 7.68 2.64 7 4 C3.04 4 -0.92 4 -5 4 C-5 3.67 -5 3.34 -5 3 C-3.35 3 -1.7 3 0 3 C0 2.01 0 1.02 0 0 Z " fill="#5F5C5C" transform="translate(307,564)"/>
<path d="M0 0 C0.33 0 0.66 0 1 0 C1.19 1.81 1.38 3.62 1.56 5.44 C1.67 6.45 1.77 7.46 1.88 8.5 C1.94 9.74 1.94 9.74 2 11 C1 12 1 12 -1.72 12.1 C-3.38 12.08 -3.38 12.08 -5.06 12.06 C-6.17 12.05 -7.27 12.04 -8.41 12.04 C-9.69 12.02 -9.69 12.02 -11 12 C-11 11.67 -11 11.34 -11 11 C-7.7 11 -4.4 11 -1 11 C-1.02 9.93 -1.04 8.86 -1.06 7.75 C-1.01 4.85 -0.87 2.71 0 0 Z " fill="#9193AD" transform="translate(300,307)"/>
<path d="M0 0 C3.59 1.72 7 3.35 10 6 C10 6.66 10 7.32 10 8 C8.68 8.33 7.36 8.66 6 9 C5.57 8.4 5.13 7.8 4.69 7.19 C3.09 5.01 3.09 5.01 1.31 3.38 C0 2 0 2 0 0 Z " fill="#727385" transform="translate(298,260)"/>
<path d="M0 0 C2.25 0.25 2.25 0.25 4 1 C2.21 5.04 0.79 7.64 -3 10 C-2.75 9.04 -2.75 9.04 -2.5 8.06 C-1.96 6.19 -1.96 6.19 -2 5 C-2.66 4.67 -3.32 4.34 -4 4 C-2.25 1.94 -2.25 1.94 0 0 Z " fill="#4A4F6B" transform="translate(234,261)"/>
<path d="M0 0 C2.4 2.88 4.47 5.56 6 9 C5.01 9.33 4.02 9.66 3 10 C0.87 7.4 -0.55 5.37 -1 2 C-0.67 1.34 -0.34 0.68 0 0 Z " fill="#6F707C" transform="translate(1159,371)"/>
<path d="M0 0 C0.33 0 0.66 0 1 0 C1.19 1.98 1.38 3.96 1.56 5.94 C1.67 7.04 1.77 8.14 1.88 9.28 C1.92 10.18 1.96 11.07 2 12 C1.67 12.33 1.34 12.66 1 13 C0.93 14.35 0.92 15.71 0.94 17.06 C0.96 18.36 0.98 19.66 1 21 C0.34 21.33 -0.32 21.66 -1 22 C-2.16 18.51 -2.14 15.66 -2 12 C-1.67 11.67 -1.34 11.34 -1 11 C-0.77 9.15 -0.59 7.3 -0.44 5.44 C-0.35 4.43 -0.27 3.41 -0.18 2.37 C-0.12 1.59 -0.06 0.81 0 0 Z " fill="#58585E" transform="translate(750,284)"/>
<path d="M0 0 C2.17 0.51 4 1 6 2 C6 2.66 6 3.32 6 4 C8.47 4.99 8.47 4.99 11 6 C11 6.33 11 6.66 11 7 C8.81 7.31 8.81 7.31 6 7 C3.48 4.82 1.49 2.99 0 0 Z " fill="#595C6C" transform="translate(246,383)"/>
<path d="M0 0 C0.33 0.99 0.66 1.98 1 3 C-0.29 3.86 -1.58 4.72 -2.88 5.56 C-3.59 6.04 -4.31 6.51 -5.05 7 C-5.7 7.33 -6.34 7.66 -7 8 C-7.66 7.67 -8.32 7.34 -9 7 C-9 6.34 -9 5.68 -9 5 C-8.01 5 -7.02 5 -6 5 C-5.75 4.36 -5.5 3.72 -5.25 3.06 C-4 1 -4 1 -1.88 0.25 C-1.26 0.17 -0.64 0.08 0 0 Z " fill="#63667D" transform="translate(720,381)"/>
<path d="M0 0 C0.33 0 0.66 0 1 0 C1 8.58 1 17.16 1 26 C0.67 26 0.34 26 0 26 C0 17.42 0 8.84 0 0 Z " fill="#E3E3E3" transform="translate(30,211)"/>
<path d="M0 0 C7.26 0 14.52 0 22 0 C22 0.33 22 0.66 22 1 C14.74 1 7.48 1 0 1 C0 0.67 0 0.34 0 0 Z " fill="#F6F6F6" transform="translate(293,549)"/>
<path d="M0 0 C7.26 0 14.52 0 22 0 C22 0.33 22 0.66 22 1 C14.74 1 7.48 1 0 1 C0 0.67 0 0.34 0 0 Z " fill="#F6F6F6" transform="translate(478,253)"/>
<path d="M0 0 C6.6 0 13.2 0 20 0 C20 0.33 20 0.66 20 1 C13.4 1 6.8 1 0 1 C0 0.67 0 0.34 0 0 Z " fill="#F6F6F6" transform="translate(280,582)"/>
<path d="M0 0 C5.94 0 11.88 0 18 0 C18 0.33 18 0.66 18 1 C12.06 1.33 6.12 1.66 0 2 C0 1.34 0 0.68 0 0 Z " fill="#E8E6E8" transform="translate(210,521)"/>
<path d="M0 0 C0.33 0 0.66 0 1 0 C1 6.27 1 12.54 1 19 C0.67 19 0.34 19 0 19 C0 12.73 0 6.46 0 0 Z " fill="#F6F6F6" transform="translate(1248,392)"/>
<path d="M0 0 C0.33 0 0.66 0 1 0 C1 5.94 1 11.88 1 18 C0.67 18 0.34 18 0 18 C0 12.06 0 6.12 0 0 Z " fill="#F6F6F6" transform="translate(329,323)"/>
<path d="M0 0 C0.66 0 1.32 0 2 0 C2 4.95 2 9.9 2 15 C1.67 15 1.34 15 1 15 C0.67 10.05 0.34 5.1 0 0 Z " fill="#F6F6F6" transform="translate(508,401)"/>
<path d="M0 0 C0.33 0 0.66 0 1 0 C1 5.28 1 10.56 1 16 C0.67 16 0.34 16 0 16 C0 10.72 0 5.44 0 0 Z " fill="#F6F6F6" transform="translate(970,326)"/>
<path d="M0 0 C0.33 0 0.66 0 1 0 C1 5.28 1 10.56 1 16 C0.67 16 0.34 16 0 16 C0 10.72 0 5.44 0 0 Z " fill="#F6F6F6" transform="translate(838,260)"/>
<path d="M0 0 C4.95 0 9.9 0 15 0 C15 0.33 15 0.66 15 1 C10.05 1 5.1 1 0 1 C0 0.67 0 0.34 0 0 Z " fill="#D4CFD4" transform="translate(673,419)"/>
<path d="M0 0 C0.33 0 0.66 0 1 0 C1 4.95 1 9.9 1 15 C0.67 15 0.34 15 0 15 C0 10.05 0 5.1 0 0 Z " fill="#D5D5D5" transform="translate(201,327)"/>
<path d="M0 0 C0.33 0 0.66 0 1 0 C1 4.29 1 8.58 1 13 C0.67 13 0.34 13 0 13 C0 8.71 0 4.42 0 0 Z " fill="#F6F6F6" transform="translate(315,533)"/>
<path d="M0 0 C3.63 0 7.26 0 11 0 C11 0.33 11 0.66 11 1 C7.37 1 3.74 1 0 1 C0 0.67 0 0.34 0 0 Z " fill="#F6F6F6" transform="translate(42,481)"/>
<path d="M0 0 C3.3 0 6.6 0 10 0 C10 0.33 10 0.66 10 1 C6.7 1 3.4 1 0 1 C0 0.67 0 0.34 0 0 Z " fill="#F6F6F6" transform="translate(499,416)"/>
<path d="M0 0 C0.33 0 0.66 0 1 0 C1 2.97 1 5.94 1 9 C0.67 9 0.34 9 0 9 C0 6.03 0 3.06 0 0 Z " fill="#888889" transform="translate(647,267)"/>
<path d="M0 0 C2.97 0 5.94 0 9 0 C9 0.33 9 0.66 9 1 C6.03 1 3.06 1 0 1 C0 0.67 0 0.34 0 0 Z " fill="#DFDDDC" transform="translate(400,253)"/>
<path d="M0 0 C0.66 0.33 1.32 0.66 2 1 C0.68 1.99 -0.64 2.98 -2 4 C-2.66 3.67 -3.32 3.34 -4 3 C-2.68 2.01 -1.36 1.02 0 0 Z " fill="#C7C4CC" transform="translate(575,225)"/>
<path d="M0 0 C0.33 0 0.66 0 1 0 C1 2.64 1 5.28 1 8 C0.67 8 0.34 8 0 8 C0 5.36 0 2.72 0 0 Z " fill="#F6F6F6" transform="translate(315,567)"/>
<path d="M0 0 C2.64 0 5.28 0 8 0 C8 0.33 8 0.66 8 1 C5.36 1 2.72 1 0 1 C0 0.67 0 0.34 0 0 Z " fill="#DCDAD9" transform="translate(469,253)"/>
<path d="M0 0 C0.66 0.33 1.32 0.66 2 1 C1.34 1.66 0.68 2.32 0 3 C-0.99 2.67 -1.98 2.34 -3 2 C-2.01 1.34 -1.02 0.68 0 0 Z " fill="#18100A" transform="translate(196,479)"/>
<path d="M0 0 C1.21 0.03 1.21 0.03 2.44 0.06 C0.56 1.12 0.56 1.12 -1.56 2.06 C-2.22 1.73 -2.88 1.4 -3.56 1.06 C-2.56 0.06 -2.56 0.06 0 0 Z " fill="#D7D6DB" transform="translate(311.5625,414.9375)"/>
<path d="M0 0 C1.06 1.88 1.06 1.88 2 4 C1.67 4.66 1.34 5.32 1 6 C0 5 0 5 -0.06 2.44 C-0.04 1.63 -0.02 0.83 0 0 Z " fill="#D5D8E2" transform="translate(1246,303)"/>
<path d="M0 0 C0.33 0 0.66 0 1 0 C1 2.31 1 4.62 1 7 C0.67 7 0.34 7 0 7 C0 4.69 0 2.38 0 0 Z " fill="#F6F6F6" transform="translate(751,297)"/>
<path d="M0 0 C1.21 0.03 1.21 0.03 2.44 0.06 C0.56 1.12 0.56 1.12 -1.56 2.06 C-2.22 1.73 -2.88 1.4 -3.56 1.06 C-2.56 0.06 -2.56 0.06 0 0 Z " fill="#CFCCD2" transform="translate(259.5625,276.9375)"/>
<path d="M0 0 C2.31 0 4.62 0 7 0 C7 0.33 7 0.66 7 1 C4.69 1 2.38 1 0 1 C0 0.67 0 0.34 0 0 Z " fill="#F6F6F6" transform="translate(553,253)"/>
<path d="M0 0 C0.33 0 0.66 0 1 0 C1 2.31 1 4.62 1 7 C0.67 7 0.34 7 0 7 C0 4.69 0 2.38 0 0 Z " fill="#D2CCD2" transform="translate(579,212)"/>
<path d="M0 0 C1.98 0.5 1.98 0.5 4 1 C2.35 1.33 0.7 1.66 -1 2 C-0.67 1.34 -0.34 0.68 0 0 Z " fill="#C8C5CC" transform="translate(674,279)"/>
<path d="M0 0 C1.98 0 3.96 0 6 0 C6 0.33 6 0.66 6 1 C4.02 1 2.04 1 0 1 C0 0.67 0 0.34 0 0 Z " fill="#CDCDCD" transform="translate(822,255)"/>
<path d="M0 0 C1.98 0 3.96 0 6 0 C6 0.33 6 0.66 6 1 C4.02 1 2.04 1 0 1 C0 0.67 0 0.34 0 0 Z " fill="#6E645D" transform="translate(415,253)"/>
<path d="M0 0 C0.33 0 0.66 0 1 0 C1 1.65 1 3.3 1 5 C0.67 5 0.34 5 0 5 C0 3.35 0 1.7 0 0 Z " fill="#F6F6F6" transform="translate(210,565)"/>
<path d="M0 0 C0.33 0 0.66 0 1 0 C1 1.65 1 3.3 1 5 C0.67 5 0.34 5 0 5 C0 3.35 0 1.7 0 0 Z " fill="#F6F6F6" transform="translate(210,556)"/>
<path d="M0 0 C0.33 0 0.66 0 1 0 C1 1.65 1 3.3 1 5 C0.67 5 0.34 5 0 5 C0 3.35 0 1.7 0 0 Z " fill="#F6F6F6" transform="translate(210,545)"/>
<path d="M0 0 C0.33 0 0.66 0 1 0 C1 1.65 1 3.3 1 5 C0.67 5 0.34 5 0 5 C0 3.35 0 1.7 0 0 Z " fill="#F6F6F6" transform="translate(210,536)"/>
<path d="M0 0 C0.33 0 0.66 0 1 0 C1 1.65 1 3.3 1 5 C0.67 5 0.34 5 0 5 C0 3.35 0 1.7 0 0 Z " fill="#F6F6F6" transform="translate(210,527)"/>
<path d="M0 0 C1.65 0 3.3 0 5 0 C5 0.33 5 0.66 5 1 C3.35 1 1.7 1 0 1 C0 0.67 0 0.34 0 0 Z " fill="#100B08" transform="translate(198,476)"/>
<path d="M0 0 C0.66 0.33 1.32 0.66 2 1 C0.68 1.33 -0.64 1.66 -2 2 C-1.34 1.34 -0.68 0.68 0 0 Z " fill="#000002" transform="translate(1237,388)"/>
<path d="M0 0 C0.66 0.33 1.32 0.66 2 1 C0.68 1.33 -0.64 1.66 -2 2 C-1.34 1.34 -0.68 0.68 0 0 Z " fill="#000002" transform="translate(1081,388)"/>
<path d="M0 0 C0.33 0 0.66 0 1 0 C1 1.65 1 3.3 1 5 C0.67 5 0.34 5 0 5 C0 3.35 0 1.7 0 0 Z " fill="#F6F6F6" transform="translate(752,383)"/>
<path d="M0 0 C0.99 0.33 1.98 0.66 3 1 C1.68 1.33 0.36 1.66 -1 2 C-0.67 1.34 -0.34 0.68 0 0 Z " fill="#BFBBC3" transform="translate(684,344)"/>
<path d="M0 0 C1.65 0 3.3 0 5 0 C5 0.33 5 0.66 5 1 C3.35 1 1.7 1 0 1 C0 0.67 0 0.34 0 0 Z " fill="#F6F6F6" transform="translate(65,325)"/>
<path d="M0 0 C0.99 0.33 1.98 0.66 3 1 C1.68 1.33 0.36 1.66 -1 2 C-0.67 1.34 -0.34 0.68 0 0 Z " fill="#E9E7E9" transform="translate(120,313)"/>
<path d="M0 0 C0.33 0 0.66 0 1 0 C1 1.65 1 3.3 1 5 C0.67 5 0.34 5 0 5 C0 3.35 0 1.7 0 0 Z " fill="#F6F6F6" transform="translate(235,303)"/>
<path d="M0 0 C1.65 0 3.3 0 5 0 C5 0.33 5 0.66 5 1 C3.35 1 1.7 1 0 1 C0 0.67 0 0.34 0 0 Z " fill="#F6F6F6" transform="translate(1186,276)"/>
<path d="M0 0 C1.65 0 3.3 0 5 0 C5 0.33 5 0.66 5 1 C3.35 1 1.7 1 0 1 C0 0.67 0 0.34 0 0 Z " fill="#F6F6F6" transform="translate(546,253)"/>
<path d="M0 0 C0.33 0 0.66 0 1 0 C1 1.65 1 3.3 1 5 C0.67 5 0.34 5 0 5 C0 3.35 0 1.7 0 0 Z " fill="#F6F6F6" transform="translate(30,205)"/>
<path d="M0 0 C4 1 4 1 4 1 Z " fill="#F6F6F6" transform="translate(304,581)"/>
<path d="M0 0 C4 1 4 1 4 1 Z " fill="#F6F6F6" transform="translate(193,581)"/>
<path d="M0 0 C0.66 0.33 1.32 0.66 2 1 C1.01 1 0.02 1 -1 1 C-0.67 0.67 -0.34 0.34 0 0 Z " fill="#000002" transform="translate(311,562)"/>
<path d="M0 0 C1 4 1 4 1 4 Z " fill="#F6F6F6" transform="translate(210,551)"/>
<path d="M0 0 C0 3 0 3 0 3 Z " fill="#000002" transform="translate(130,507)"/>
<path d="M0 0 C4 1 4 1 4 1 Z " fill="#F6F6F6" transform="translate(550,416)"/>
<path d="M0 0 C1 4 1 4 1 4 Z " fill="#F6F6F6" transform="translate(1248,315)"/>
<path d="M0 0 C0 3 0 3 0 3 Z " fill="#E6E3E6" transform="translate(847,300)"/>
<path d="M0 0 C0 3 0 3 0 3 Z " fill="#E6E3E6" transform="translate(1160,291)"/>
<path d="M0 0 C0 3 0 3 0 3 Z " fill="#05091D" transform="translate(1135,281)"/>
<path d="M0 0 C0.66 0.33 1.32 0.66 2 1 C1.01 1 0.02 1 -1 1 C-0.67 0.67 -0.34 0.34 0 0 Z " fill="#152670" transform="translate(653,261)"/>
<path d="M0 0 C4 1 4 1 4 1 Z " fill="#908983" transform="translate(569,253)"/>
<path d="M0 0 C3 1 3 1 3 1 Z " fill="#F6F6F6" transform="translate(133,581)"/>
<path d="M0 0 C0.66 0 1.32 0 2 0 C1.67 0.66 1.34 1.32 1 2 C0.67 1.34 0.34 0.68 0 0 Z " fill="#807C80" transform="translate(312,578)"/>
<path d="" fill="#000002" transform="translate(0,0)"/>
<path d="" fill="#E1DDE1" transform="translate(0,0)"/>
<path d="M0 0 C0.99 0.5 0.99 0.5 2 1 C1.01 1.5 1.01 1.5 0 2 C0 1.34 0 0.68 0 0 Z " fill="#0E0907" transform="translate(261,511)"/>
<path d="M0 0 C3 1 3 1 3 1 Z " fill="#000002" transform="translate(221,474)"/>
<path d="M0 0 C3 1 3 1 3 1 Z " fill="#F6F6F6" transform="translate(1078,415)"/>
<path d="M0 0 C0.33 0.66 0.66 1.32 1 2 C0.34 1.67 -0.32 1.34 -1 1 C-0.67 0.67 -0.34 0.34 0 0 Z " fill="#F6F6F6" transform="translate(772,415)"/>
<path d="M0 0 C3 1 3 1 3 1 Z " fill="#F6F6F6" transform="translate(1238,413)"/>
<path d="M0 0 C0.99 0.5 0.99 0.5 2 1 C1.01 1.5 1.01 1.5 0 2 C0 1.34 0 0.68 0 0 Z " fill="#C4C4CC" transform="translate(1086,413)"/>
<path d="" fill="#E1DDE1" transform="translate(0,0)"/>
<path d="M0 0 C0.99 0.5 0.99 0.5 2 1 C1.01 1.5 1.01 1.5 0 2 C0 1.34 0 0.68 0 0 Z " fill="#ABB0C9" transform="translate(319,413)"/>
<path d="M0 0 C0.66 0 1.32 0 2 0 C1.67 0.66 1.34 1.32 1 2 C0.67 1.34 0.34 0.68 0 0 Z " fill="#CCC5CC" transform="translate(1244,411)"/>
<path d="" fill="#F6F6F6" transform="translate(0,0)"/>
<path d="" fill="#F6F6F6" transform="translate(0,0)"/>
<path d="M0 0 C0.33 0.66 0.66 1.32 1 2 C0.34 1.67 -0.32 1.34 -1 1 C-0.67 0.67 -0.34 0.34 0 0 Z " fill="#F6F6F6" transform="translate(1014,300)"/>
<path d="M0 0 C0.33 0.66 0.66 1.32 1 2 C0.34 1.67 -0.32 1.34 -1 1 C-0.67 0.67 -0.34 0.34 0 0 Z " fill="#CCC5CC" transform="translate(849,298)"/>
<path d="" fill="#F6F6F6" transform="translate(0,0)"/>
<path d="" fill="#A4A4A4" transform="translate(0,0)"/>
<path d="M0 0 C3 1 3 1 3 1 Z " fill="#F6F6F6" transform="translate(251,280)"/>
<path d="M0 0 C3 1 3 1 3 1 Z " fill="#F6F6F6" transform="translate(1036,279)"/>
<path d="M0 0 C0.99 0.5 0.99 0.5 2 1 C1.01 1.5 1.01 1.5 0 2 C0 1.34 0 0.68 0 0 Z " fill="#000002" transform="translate(988,277)"/>
<path d="M0 0 C3 1 3 1 3 1 Z " fill="#F6F6F6" transform="translate(276,277)"/>
<path d="M0 0 C0.99 0.5 0.99 0.5 2 1 C1.01 1.5 1.01 1.5 0 2 C0 1.34 0 0.68 0 0 Z " fill="#0E194B" transform="translate(990,275)"/>
<path d="M0 0 C0.99 0.5 0.99 0.5 2 1 C1.01 1.5 1.01 1.5 0 2 C0 1.34 0 0.68 0 0 Z " fill="#0E194B" transform="translate(992,273)"/>
<path d="M0 0 C0.99 0.5 0.99 0.5 2 1 C1.01 1.5 1.01 1.5 0 2 C0 1.34 0 0.68 0 0 Z " fill="#0E194B" transform="translate(1144,269)"/>
<path d="M0 0 C0.99 0.5 0.99 0.5 2 1 C1.01 1.5 1.01 1.5 0 2 C0 1.34 0 0.68 0 0 Z " fill="#070C26" transform="translate(996,269)"/>
<path d="M0 0 C0.99 0.5 0.99 0.5 2 1 C1.01 1.5 1.01 1.5 0 2 C0 1.34 0 0.68 0 0 Z " fill="#070C26" transform="translate(1146,267)"/>
<path d="M0 0 C0.99 0.5 0.99 0.5 2 1 C1.01 1.5 1.01 1.5 0 2 C0 1.34 0 0.68 0 0 Z " fill="#000002" transform="translate(998,267)"/>
<path d="" fill="#6E645D" transform="translate(0,0)"/>
<path d="" fill="#E1DDE1" transform="translate(0,0)"/>
<path d="M0 0 C3 1 3 1 3 1 Z " fill="#E1DDE1" transform="translate(558,229)"/>
<path d="M0 0 C2 1 2 1 2 1 Z " fill="#F6F6F6" transform="translate(208,581)"/>
<path d="" fill="#F6F6F6" transform="translate(0,0)"/>
<path d="" fill="#F6F6F6" transform="translate(0,0)"/>
<path d="" fill="#F6F6F6" transform="translate(0,0)"/>
<path d="" fill="#F6F6F6" transform="translate(0,0)"/>
<path d="" fill="#F6F6F6" transform="translate(0,0)"/>
<path d="" fill="#F6F6F6" transform="translate(0,0)"/>
<path d="" fill="#F6F6F6" transform="translate(0,0)"/>
<path d="" fill="#5C565C" transform="translate(0,0)"/>
<path d="" fill="#2A1C11" transform="translate(0,0)"/>
<path d="" fill="#7B7B7C" transform="translate(0,0)"/>
<path d="M0 0 C2 1 2 1 2 1 Z " fill="#5C565C" transform="translate(129,479)"/>
<path d="M0 0 C2 1 2 1 2 1 Z " fill="#F6F6F6" transform="translate(184,416)"/>
<path d="" fill="#F6F6F6" transform="translate(0,0)"/>
<path d="M0 0 C2 1 2 1 2 1 Z " fill="#F6F6F6" transform="translate(707,412)"/>
<path d="M0 0 C2 1 2 1 2 1 Z " fill="#F6F6F6" transform="translate(239,409)"/>
<path d="" fill="#8C8798" transform="translate(0,0)"/>
<path d="M0 0 C2 1 2 1 2 1 Z " fill="#1F2140" transform="translate(771,400)"/>
<path d="M0 0 C2 1 2 1 2 1 Z " fill="#0A1339" transform="translate(1074,391)"/>
<path d="M0 0 C2 1 2 1 2 1 Z " fill="#0A1339" transform="translate(311,391)"/>
<path d="" fill="#F6F6F6" transform="translate(0,0)"/>
<path d="" fill="#616279" transform="translate(0,0)"/>
<path d="" fill="#D7D1D6" transform="translate(0,0)"/>
<path d="" fill="#F6F6F6" transform="translate(0,0)"/>
<path d="" fill="#F6F6F6" transform="translate(0,0)"/>
<path d="" fill="#B8ADB7" transform="translate(0,0)"/>
<path d="" fill="#858EB3" transform="translate(0,0)"/>
<path d="" fill="#000002" transform="translate(0,0)"/>
<path d="" fill="#F6F6F6" transform="translate(0,0)"/>
<path d="" fill="#F6F6F6" transform="translate(0,0)"/>
<path d="" fill="#D7D1D6" transform="translate(0,0)"/>
<path d="" fill="#F6F6F6" transform="translate(0,0)"/>
<path d="" fill="#000002" transform="translate(0,0)"/>
<path d="" fill="#F6F6F6" transform="translate(0,0)"/>
<path d="M0 0 C2 1 2 1 2 1 Z " fill="#0A1339" transform="translate(111,289)"/>
<path d="M0 0 C2 1 2 1 2 1 Z " fill="#F6F6F6" transform="translate(653,288)"/>
<path d="M0 0 C2 1 2 1 2 1 Z " fill="#F6F6F6" transform="translate(872,282)"/>
<path d="M0 0 C2 1 2 1 2 1 Z " fill="#F6F6F6" transform="translate(667,282)"/>
<path d="M0 0 C2 1 2 1 2 1 Z " fill="#F6F6F6" transform="translate(1081,281)"/>
<path d="" fill="#0A1339" transform="translate(0,0)"/>
<path d="M0 0 C2 1 2 1 2 1 Z " fill="#F6F6F6" transform="translate(874,281)"/>
<path d="M0 0 C2 1 2 1 2 1 Z " fill="#F6F6F6" transform="translate(669,281)"/>
<path d="" fill="#F6F6F6" transform="translate(0,0)"/>
<path d="M0 0 C2 1 2 1 2 1 Z " fill="#F6F6F6" transform="translate(283,280)"/>
<path d="M0 0 C2 1 2 1 2 1 Z " fill="#F6F6F6" transform="translate(1072,279)"/>
<path d="" fill="#000002" transform="translate(0,0)"/>
<path d="M0 0 C2 1 2 1 2 1 Z " fill="#F6F6F6" transform="translate(1195,277)"/>
<path d="M0 0 C2 1 2 1 2 1 Z " fill="#F6F6F6" transform="translate(692,276)"/>
<path d="" fill="#000002" transform="translate(0,0)"/>
<path d="M0 0 C2 1 2 1 2 1 Z " fill="#F6F6F6" transform="translate(831,255)"/>
<path d="M0 0 C2 1 2 1 2 1 Z " fill="#F6F6F6" transform="translate(818,255)"/>
<path d="M0 0 C2 1 2 1 2 1 Z " fill="#2A1C11" transform="translate(575,253)"/>
<path d="M0 0 C2 1 2 1 2 1 Z " fill="#F6F6F6" transform="translate(565,253)"/>
<path d="M0 0 C2 1 2 1 2 1 Z " fill="#F6F6F6" transform="translate(561,230)"/>
<path d="" fill="#D7D1D6" transform="translate(0,0)"/>
<path d="" fill="#000002" transform="translate(0,0)"/>
<path d="" fill="#F6F6F6" transform="translate(0,0)"/>
<path d="" fill="#F6F6F6" transform="translate(0,0)"/>
<path d="" fill="#F6F6F6" transform="translate(0,0)"/>
<path d="" fill="#F6F6F6" transform="translate(0,0)"/>
<path d="" fill="#B8ADB7" transform="translate(0,0)"/>
<path d="" fill="#F6F6F6" transform="translate(0,0)"/>
<path d="" fill="#F6F6F6" transform="translate(0,0)"/>
<path d="" fill="#B8ADB7" transform="translate(0,0)"/>
<path d="" fill="#F6F6F6" transform="translate(0,0)"/>
<path d="" fill="#2A1C11" transform="translate(0,0)"/>
<path d="" fill="#F6F6F6" transform="translate(0,0)"/>
<path d="" fill="#F6F6F6" transform="translate(0,0)"/>
<path d="" fill="#F6F6F6" transform="translate(0,0)"/>
<path d="" fill="#F6F6F6" transform="translate(0,0)"/>
<path d="" fill="#F6F6F6" transform="translate(0,0)"/>
<path d="" fill="#F6F6F6" transform="translate(0,0)"/>
<path d="" fill="#F6F6F6" transform="translate(0,0)"/>
<path d="" fill="#000002" transform="translate(0,0)"/>
<path d="" fill="#000002" transform="translate(0,0)"/>
<path d="" fill="#F6F6F6" transform="translate(0,0)"/>
<path d="" fill="#000002" transform="translate(0,0)"/>
<path d="" fill="#2A1C11" transform="translate(0,0)"/>
<path d="" fill="#F6F6F6" transform="translate(0,0)"/>
<path d="" fill="#F6F6F6" transform="translate(0,0)"/>
<path d="" fill="#F6F6F6" transform="translate(0,0)"/>
<path d="" fill="#F6F6F6" transform="translate(0,0)"/>
<path d="" fill="#F6F6F6" transform="translate(0,0)"/>
<path d="" fill="#F6F6F6" transform="translate(0,0)"/>
<path d="" fill="#000002" transform="translate(0,0)"/>
<path d="" fill="#2A1C11" transform="translate(0,0)"/>
<path d="" fill="#F6F6F6" transform="translate(0,0)"/>
<path d="" fill="#F6F6F6" transform="translate(0,0)"/>
<path d="" fill="#F6F6F6" transform="translate(0,0)"/>
<path d="" fill="#F6F6F6" transform="translate(0,0)"/>
<path d="" fill="#000002" transform="translate(0,0)"/>
<path d="" fill="#F6F6F6" transform="translate(0,0)"/>
<path d="" fill="#B8ADB7" transform="translate(0,0)"/>
<path d="" fill="#F6F6F6" transform="translate(0,0)"/>
<path d="" fill="#F6F6F6" transform="translate(0,0)"/>
<path d="" fill="#F6F6F6" transform="translate(0,0)"/>
<path d="" fill="#F6F6F6" transform="translate(0,0)"/>
<path d="" fill="#000002" transform="translate(0,0)"/>
<path d="" fill="#F6F6F6" transform="translate(0,0)"/>
<path d="" fill="#F6F6F6" transform="translate(0,0)"/>
<path d="" fill="#F6F6F6" transform="translate(0,0)"/>
<path d="" fill="#B8ADB7" transform="translate(0,0)"/>
<path d="" fill="#F6F6F6" transform="translate(0,0)"/>
<path d="" fill="#F6F6F6" transform="translate(0,0)"/>
<path d="" fill="#F6F6F6" transform="translate(0,0)"/>
<path d="" fill="#F6F6F6" transform="translate(0,0)"/>
<path d="" fill="#F6F6F6" transform="translate(0,0)"/>
<path d="" fill="#F6F6F6" transform="translate(0,0)"/>
<path d="" fill="#F6F6F6" transform="translate(0,0)"/>
<path d="" fill="#F6F6F6" transform="translate(0,0)"/>
<path d="" fill="#F6F6F6" transform="translate(0,0)"/>
<path d="" fill="#F6F6F6" transform="translate(0,0)"/>
<path d="" fill="#F6F6F6" transform="translate(0,0)"/>
<path d="" fill="#F6F6F6" transform="translate(0,0)"/>
<path d="" fill="#000002" transform="translate(0,0)"/>
<path d="" fill="#000002" transform="translate(0,0)"/>
<path d="" fill="#F6F6F6" transform="translate(0,0)"/>
<path d="" fill="#F6F6F6" transform="translate(0,0)"/>
<path d="" fill="#000002" transform="translate(0,0)"/>
<path d="" fill="#F6F6F6" transform="translate(0,0)"/>
<path d="" fill="#F6F6F6" transform="translate(0,0)"/>
<path d="" fill="#F6F6F6" transform="translate(0,0)"/>
<path d="" fill="#F6F6F6" transform="translate(0,0)"/>
<path d="" fill="#F6F6F6" transform="translate(0,0)"/>
<path d="" fill="#F6F6F6" transform="translate(0,0)"/>
<path d="" fill="#F6F6F6" transform="translate(0,0)"/>
<path d="" fill="#B8ADB7" transform="translate(0,0)"/>
<path d="" fill="#F6F6F6" transform="translate(0,0)"/>
<path d="" fill="#F6F6F6" transform="translate(0,0)"/>
<path d="" fill="#F6F6F6" transform="translate(0,0)"/>
<path d="" fill="#F6F6F6" transform="translate(0,0)"/>
<path d="" fill="#F6F6F6" transform="translate(0,0)"/>
<path d="" fill="#152670" transform="translate(0,0)"/>
<path d="" fill="#F6F6F6" transform="translate(0,0)"/>
<path d="" fill="#000002" transform="translate(0,0)"/>
<path d="" fill="#F6F6F6" transform="translate(0,0)"/>
<path d="" fill="#F6F6F6" transform="translate(0,0)"/>
<path d="" fill="#000002" transform="translate(0,0)"/>
<path d="" fill="#000002" transform="translate(0,0)"/>
<path d="" fill="#000002" transform="translate(0,0)"/>
<path d="" fill="#000002" transform="translate(0,0)"/>
<path d="" fill="#000002" transform="translate(0,0)"/>
<path d="" fill="#000002" transform="translate(0,0)"/>
<path d="" fill="#F6F6F6" transform="translate(0,0)"/>
<path d="" fill="#F6F6F6" transform="translate(0,0)"/>
<path d="" fill="#F6F6F6" transform="translate(0,0)"/>
<path d="" fill="#F6F6F6" transform="translate(0,0)"/>
<path d="" fill="#F6F6F6" transform="translate(0,0)"/>
<path d="" fill="#F6F6F6" transform="translate(0,0)"/>
<path d="" fill="#F6F6F6" transform="translate(0,0)"/>
<path d="" fill="#F6F6F6" transform="translate(0,0)"/>
<path d="" fill="#2A1C11" transform="translate(0,0)"/>
<path d="" fill="#F6F6F6" transform="translate(0,0)"/>
<path d="" fill="#F6F6F6" transform="translate(0,0)"/>
<path d="" fill="#F6F6F6" transform="translate(0,0)"/>
<path d="" fill="#F6F6F6" transform="translate(0,0)"/>
<path d="" fill="#000002" transform="translate(0,0)"/>
<path d="" fill="#F6F6F6" transform="translate(0,0)"/>
<path d="" fill="#F6F6F6" transform="translate(0,0)"/>
<path d="" fill="#F6F6F6" transform="translate(0,0)"/>
<path d="" fill="#F6F6F6" transform="translate(0,0)"/>
<path d="" fill="#F6F6F6" transform="translate(0,0)"/>
<path d="" fill="#F6F6F6" transform="translate(0,0)"/>
<path d="" fill="#F6F6F6" transform="translate(0,0)"/>
<path d="" fill="#F6F6F6" transform="translate(0,0)"/>
<path d="" fill="#F6F6F6" transform="translate(0,0)"/>
<path d="" fill="#F6F6F6" transform="translate(0,0)"/>
<path d="" fill="#F6F6F6" transform="translate(0,0)"/>
<path d="" fill="#F6F6F6" transform="translate(0,0)"/>
<path d="" fill="#F6F6F6" transform="translate(0,0)"/>
<path d="" fill="#000002" transform="translate(0,0)"/>
<path d="" fill="#152670" transform="translate(0,0)"/>
<path d="" fill="#F6F6F6" transform="translate(0,0)"/>
<path d="" fill="#F6F6F6" transform="translate(0,0)"/>
<path d="" fill="#F6F6F6" transform="translate(0,0)"/>
<path d="" fill="#F6F6F6" transform="translate(0,0)"/>
<path d="" fill="#F6F6F6" transform="translate(0,0)"/>
<path d="" fill="#F6F6F6" transform="translate(0,0)"/>
<path d="" fill="#F6F6F6" transform="translate(0,0)"/>
<path d="" fill="#F6F6F6" transform="translate(0,0)"/>
<path d="" fill="#F6F6F6" transform="translate(0,0)"/>
<path d="" fill="#000002" transform="translate(0,0)"/>
<path d="" fill="#F6F6F6" transform="translate(0,0)"/>
<path d="" fill="#F6F6F6" transform="translate(0,0)"/>
<path d="" fill="#F6F6F6" transform="translate(0,0)"/>
<path d="" fill="#F6F6F6" transform="translate(0,0)"/>
<path d="" fill="#F6F6F6" transform="translate(0,0)"/>
<path d="" fill="#F6F6F6" transform="translate(0,0)"/>
<path d="" fill="#F6F6F6" transform="translate(0,0)"/>
<path d="" fill="#000002" transform="translate(0,0)"/>
<path d="" fill="#000002" transform="translate(0,0)"/>
<path d="" fill="#F6F6F6" transform="translate(0,0)"/>
<path d="" fill="#000002" transform="translate(0,0)"/>
<path d="" fill="#152670" transform="translate(0,0)"/>
<path d="" fill="#000002" transform="translate(0,0)"/>
<path d="" fill="#152670" transform="translate(0,0)"/>
<path d="" fill="#000002" transform="translate(0,0)"/>
<path d="" fill="#000002" transform="translate(0,0)"/>
<path d="" fill="#F6F6F6" transform="translate(0,0)"/>
<path d="" fill="#F6F6F6" transform="translate(0,0)"/>
<path d="" fill="#616279" transform="translate(0,0)"/>
<path d="" fill="#F6F6F6" transform="translate(0,0)"/>
<path d="" fill="#F6F6F6" transform="translate(0,0)"/>
<path d="" fill="#616279" transform="translate(0,0)"/>
<path d="" fill="#616279" transform="translate(0,0)"/>
<path d="" fill="#000002" transform="translate(0,0)"/>
<path d="" fill="#000002" transform="translate(0,0)"/>
<path d="" fill="#000002" transform="translate(0,0)"/>
<path d="" fill="#F6F6F6" transform="translate(0,0)"/>
<path d="" fill="#000002" transform="translate(0,0)"/>
<path d="" fill="#152670" transform="translate(0,0)"/>
<path d="" fill="#000002" transform="translate(0,0)"/>
<path d="" fill="#F6F6F6" transform="translate(0,0)"/>
<path d="" fill="#F6F6F6" transform="translate(0,0)"/>
<path d="" fill="#F6F6F6" transform="translate(0,0)"/>
<path d="" fill="#F6F6F6" transform="translate(0,0)"/>
<path d="" fill="#000002" transform="translate(0,0)"/>
<path d="" fill="#000002" transform="translate(0,0)"/>
</svg>
